<?xml version="1.0" encoding="UTF-8" standalone="no"?>
<svg width="23px" height="17px" viewBox="0 0 23 17" version="1.1" xmlns="http://www.w3.org/2000/svg" xmlns:xlink="http://www.w3.org/1999/xlink">
    <!-- Generator: Sketch 42 (36781) - http://www.bohemiancoding.com/sketch -->
    <title>Capa_1</title>
    <desc>Created with Sketch.</desc>
    <defs></defs>
    <g id="Mis-puntos" stroke="none" stroke-width="1" fill="none" fill-rule="evenodd">
        <g transform="translate(-713.000000, -707.000000)" id="Group-26" fill="#CBCBCB">
            <g transform="translate(372.000000, 578.000000)">
                <g id="right-arrow-copia-2" transform="translate(341.000000, 129.000000)">
                    <g id="Capa_1">
                        <path d="M15.2410937,0.744304348 C14.93275,0.416130435 14.4195625,0.416130435 14.1004375,0.744304348 C13.7920937,1.0613913 13.7920937,1.58913043 14.1004375,1.90547826 L19.8842187,7.85326087 L0.79853125,7.85326087 C0.353625,7.854 0,8.21765217 0,8.67517391 C0,9.13269565 0.353625,9.50817391 0.79853125,9.50817391 L19.8842187,9.50817391 L14.1004375,15.4448696 C13.7920937,15.7730435 13.7920937,16.3015217 14.1004375,16.6178696 C14.4195625,16.9460435 14.9334687,16.9460435 15.2410937,16.6178696 L22.3940937,9.26204348 C22.7132187,8.94495652 22.7132187,8.41721739 22.3940937,8.10086957 L15.2410937,0.744304348 Z" id="Shape"></path>
                    </g>
                </g>
            </g>
        </g>
    </g>
</svg>