<?xml version="1.0" encoding="UTF-8" standalone="no"?>
<svg width="27px" height="27px" viewBox="0 0 27 27" version="1.1" xmlns="http://www.w3.org/2000/svg" xmlns:xlink="http://www.w3.org/1999/xlink">
    <!-- Generator: Sketch 42 (36781) - http://www.bohemiancoding.com/sketch -->
    <title>Group</title>
    <desc>Created with Sketch.</desc>
    <defs></defs>
    <g id="Page-1" stroke="none" stroke-width="1" fill="none" fill-rule="evenodd">
        <g id="Group" fill="#FFFFFF">
            <path d="M13.5,5.85 C12.25755,5.85 11.25,6.8571 11.25,8.1 C11.25,9.3438 12.25755,10.35 13.5,10.35 C14.74245,10.35 15.75,9.3438 15.75,8.1 C15.75,6.8571 14.74245,5.85 13.5,5.85" id="Fill-1"></path>
            <path d="M13.4995806,24.825 C7.25489167,24.825 2.175,19.7442694 2.175,13.5 C2.175,7.25573056 7.25489167,2.175 13.4995806,2.175 C19.7446889,2.175 24.825,7.25573056 24.825,13.5 C24.825,19.7442694 19.7446889,24.825 13.4995806,24.825 M0,13.5 C0,20.9556 6.04395,27 13.49955,27 C20.95515,27 27,20.9556 27,13.5 C27,6.0444 20.95515,0 13.49955,0 C6.04395,0 0,6.0444 0,13.5 Z" id="Fill-3"></path>
            <path d="M11.20077,21.43917 L15.70077,21.43917 L15.70077,12.38022 C15.70077,12.00852 15.44787,11.98917 15.07662,11.98917 L11.92302,11.98917 C11.55222,11.98917 11.20077,12.00312 11.20077,12.37482 L11.20077,21.43917 Z" id="Fill-5"></path>
        </g>
    </g>
</svg>