<?xml version="1.0" encoding="UTF-8" standalone="no"?>
<svg width="55px" height="55px" viewBox="0 0 55 55" version="1.1" xmlns="http://www.w3.org/2000/svg" xmlns:xlink="http://www.w3.org/1999/xlink">
    <!-- Generator: Sketch 42 (36781) - http://www.bohemiancoding.com/sketch -->
    <title>icn_t-iconLib_C08-64px</title>
    <desc>Created with Sketch.</desc>
    <defs></defs>
    <g id="Mis-cuentas-por-pagar" stroke="none" stroke-width="1" fill="none" fill-rule="evenodd">
        <g id="Mis-cuentas-por-pagar-4" transform="translate(-852.000000, -246.000000)" fill="#3EB6BB">
            <g id="Group-4" transform="translate(652.000000, 246.000000)">
                <g id="icn_t-iconLib_C08-64px" transform="translate(200.000000, 0.000000)">
                    <g id="Layer_1">
                        <g id="Group">
                            <path d="M53.5806452,49.9435484 L46.3064516,42.4919355 C47.2822581,40.8064516 47.7258065,38.9435484 47.7258065,36.9919355 C47.7258065,31.0483871 43.0241935,26.1693548 37.2580645,26.1693548 C31.4919355,26.1693548 26.7903226,31.0483871 26.7903226,36.9919355 C26.7903226,42.9354839 31.4919355,47.7258065 37.2580645,47.7258065 C39.1209677,47.7258065 40.983871,47.1935484 42.5806452,46.2177419 L49.8548387,53.6693548 C50.3870968,54.2016129 51.0080645,54.4677419 51.7177419,54.4677419 C52.4274194,54.4677419 53.0483871,54.2016129 53.5806452,53.6693548 C54.5564516,52.6935484 54.5564516,51.0080645 53.5806452,49.9435484 Z M42.7580645,42.5806452 C39.6532258,45.7741935 34.6854839,45.7741935 31.6693548,42.5806452 C28.5645161,39.3870968 28.5645161,34.2419355 31.6693548,31.1370968 C34.7741935,27.9435484 39.7419355,27.9435484 42.7580645,31.1370968 C45.8629032,34.3306452 45.8629032,39.4758065 42.7580645,42.5806452 Z" id="Shape"></path>
                            <path d="M37.0806452,8.42741935 L6.91935484,8.42741935 L6.91935484,14.6370968 L37.0806452,14.6370968 L37.0806452,8.42741935 Z M27.3225806,12.8629032 L8.69354839,12.8629032 L8.69354839,10.2016129 L27.3225806,10.2016129 L27.3225806,12.8629032 Z M35.3064516,12.8629032 L29.0967742,12.8629032 L29.0967742,10.2016129 L35.3064516,10.2016129 L35.3064516,12.8629032 Z" id="Shape"></path>
                            <path d="M37.0806452,23.7741935 L37.0806452,17.3870968 L6.91935484,17.3870968 L6.91935484,23.7741935 L37.0806452,23.7741935 Z M27.3225806,21.733871 L8.69354839,21.733871 L8.69354839,19.0725806 L27.3225806,19.0725806 L27.3225806,21.733871 Z M29.0967742,19.0725806 L35.3064516,19.0725806 L35.3064516,21.733871 L29.0967742,21.733871 L29.0967742,19.0725806 Z" id="Shape"></path>
                            <path d="M29.1854839,26.1693548 L6.91935484,26.1693548 L6.91935484,32.3790323 L24.8387097,32.3790323 C25.016129,31.4919355 25.2822581,31.4919355 25.5483871,30.6048387 L8.69354839,30.6048387 L8.69354839,27.9435484 L27.3225806,27.9435484 L27.3225806,28.2096774 C27.8548387,27.5887097 28.4758065,27.0564516 29.1854839,26.1693548 Z" id="Shape"></path>
                            <path d="M6.91935484,35.0403226 L6.91935484,41.25 L24.9274194,41.25 C24.75,40.3629032 24.5725806,40.3629032 24.3951613,39.4758065 L8.69354839,39.4758065 L8.69354839,36.8145161 L24.1290323,36.8145161 L24.1290323,36.7258065 C24.1290323,36.1935484 24.2177419,35.9274194 24.2177419,35.0403226 L6.91935484,35.0403226 Z" id="Shape"></path>
                            <path d="M40.6290323,49.9435484 L40.6290323,51.0080645 L3.37096774,51.0080645 L3.37096774,3.10483871 L40.6290323,3.10483871 L40.6290323,23.9516129 C41.516129,24.2177419 42.4919355,24.5725806 43.2903226,25.016129 L43.2903226,4.52419355 C43.2903226,2.39516129 41.6048387,0.532258065 39.4758065,0.532258065 L4.52419355,0.532258065 C2.39516129,0.532258065 0.709677419,2.48387097 0.709677419,4.52419355 L0.709677419,53.7580645 L43.2903226,53.7580645 L43.2903226,50.9193548 L42.0483871,49.5887097 C41.516129,49.6774194 41.0725806,49.8548387 40.6290323,49.9435484 Z" id="Shape"></path>
                        </g>
                    </g>
                </g>
            </g>
        </g>
    </g>
</svg>