<?xml version="1.0" encoding="UTF-8" standalone="no"?>
<svg width="51px" height="51px" viewBox="0 0 51 51" version="1.1" xmlns="http://www.w3.org/2000/svg" xmlns:xlink="http://www.w3.org/1999/xlink">
    <!-- Generator: Sketch 42 (36781) - http://www.bohemiancoding.com/sketch -->
    <title>Page 1</title>
    <desc>Created with Sketch.</desc>
    <defs></defs>
    <g id="Page-1" stroke="none" stroke-width="1" fill="none" fill-rule="evenodd">
        <g id="iPad-Pro-Portrait" fill="#FFFFFF">
            <g id="Page-1">
                <path d="M26,11.2666667 C23.6071333,11.2666667 21.6666667,13.2062667 21.6666667,15.6 C21.6666667,17.9954667 23.6071333,19.9333333 26,19.9333333 C28.3928667,19.9333333 30.3333333,17.9954667 30.3333333,15.6 C30.3333333,13.2062667 28.3928667,11.2666667 26,11.2666667" id="Fill-1"></path>
                <path d="M25.9991333,49.4 C13.0962,49.4 2.6,38.9020667 2.6,26 C2.6,13.0979333 13.0962,2.6 25.9991333,2.6 C38.9029333,2.6 49.4,13.0979333 49.4,26 C49.4,38.9020667 38.9029333,49.4 25.9991333,49.4 M25.9991333,0 C11.6402,0 0,11.6410667 0,26 C0,40.3589333 11.6402,52 25.9991333,52 C40.3580667,52 52,40.3589333 52,26 C52,11.6410667 40.3580667,0 25.9991333,0" id="Fill-3" stroke="#FFFFFF"></path>
                <path d="M21.5718533,41.2902533 L30.23852,41.2902533 L30.23852,23.8433867 C30.23852,23.12752 29.7514533,23.0902533 29.0364533,23.0902533 L22.9628533,23.0902533 C22.24872,23.0902533 21.5718533,23.11712 21.5718533,23.8329867 L21.5718533,41.2902533 Z" id="Fill-5"></path>
            </g>
        </g>
    </g>
</svg>