<?xml version="1.0" encoding="UTF-8"?>
<svg width="68px" height="76px" viewBox="0 0 68 76" version="1.1" xmlns="http://www.w3.org/2000/svg" xmlns:xlink="http://www.w3.org/1999/xlink">
    <!-- Generator: Sketch 43.2 (39069) - http://www.bohemiancoding.com/sketch -->
    <title>noun_1015316_cc</title>
    <desc>Created with Sketch.</desc>
    <defs></defs>
    <g id="Page-1" stroke="none" stroke-width="1" fill="none" fill-rule="evenodd">
        <g id="noun_1015316_cc" fill-rule="nonzero" fill="#025492">
            <path d="M67.8349351,37.9548732 C67.8349351,24.1577655 59.0706536,11.605593 46.0266868,6.71859234 C45.2396652,6.42323524 44.353756,6.81637267 44.0550548,7.59760731 C43.7553341,8.3778339 44.1539423,9.25180865 44.9430028,9.54716574 C56.8054176,13.9916348 64.7755413,25.4077409 64.7755413,37.9548732 C64.7755413,53.5674694 52.7969083,66.460361 37.4510051,68.1337151 L39.5979839,65.5077587 C40.1291216,64.8575699 40.0271758,63.9059757 39.3706447,63.3807844 C38.7130942,62.8555931 37.7497063,62.9563976 37.2206075,63.6055784 L33.0367514,68.7203972 C32.7635366,68.9663601 32.5861509,69.3060711 32.5484309,69.6901362 C32.5443531,69.7183614 32.5412947,69.7465867 32.5392558,69.7748119 C32.5382363,69.7949728 32.533139,69.8141256 32.533139,69.8342865 C32.533139,69.8584796 32.5392558,69.8816646 32.5402753,69.9058577 C32.5423142,69.9834772 32.5504698,70.0600886 32.5637228,70.1366999 C32.5637228,70.137708 32.5647423,70.138716 32.5647423,70.1407321 C32.6289681,70.4844754 32.8043149,70.8090658 33.0999578,71.0449482 L38.4735216,75.3422427 C38.7559115,75.5690528 39.0964105,75.6789297 39.4338511,75.6789297 C39.8803738,75.6789297 40.3217991,75.4874012 40.6235588,75.1174488 C41.1546964,74.468268 41.0537701,73.5166738 40.3962196,72.9914825 L38.0392324,71.1064389 C54.7950462,69.1528483 67.8349351,55.0351824 67.8349351,37.9548732 Z M35.2581506,7.01193334 C35.3152403,6.94036217 35.3641743,6.86475882 35.408011,6.78411524 C35.4161666,6.77000262 35.4243223,6.75689804 35.430439,6.74278541 C35.4630617,6.67625446 35.4916065,6.60669938 35.5140346,6.53412016 C35.5242292,6.50589491 35.5334043,6.47766966 35.5405405,6.44944441 C35.5558324,6.3929939 35.5639881,6.33553536 35.5721437,6.27606072 C35.5792799,6.22969066 35.5853967,6.18332061 35.5874356,6.13695055 C35.5884551,6.11578161 35.5935523,6.09662876 35.5935523,6.07545983 C35.5935523,6.05025871 35.5874356,6.02606564 35.5853967,6.00086452 C35.5833578,5.94138988 35.577241,5.88393133 35.5670464,5.82546474 C35.5609297,5.78917513 35.5537935,5.75389357 35.5456378,5.71962005 C35.5293265,5.65409715 35.5099568,5.58958229 35.4844703,5.52607547 C35.4752952,5.50289044 35.4651006,5.47970541 35.4559255,5.45652039 C35.4243223,5.38595726 35.3866023,5.31741022 35.3427657,5.25087927 C35.33461,5.23878273 35.3274738,5.22769424 35.3193181,5.2155977 C35.2703841,5.14503458 35.2143139,5.07850363 35.1531464,5.01600486 C35.1480491,5.01096463 35.1419324,5.00491636 35.1368351,4.99987614 C35.1001346,4.96358653 35.067512,4.92528083 35.0267336,4.89201536 L29.6531698,0.594720841 C28.9966388,0.0695295564 28.0322314,0.17134207 27.5031326,0.819514807 C26.971995,1.46869559 27.0729213,2.42028978 27.7304718,2.94548106 L30.0589142,4.80834765 C13.3204312,6.77504284 0.295834111,20.8856524 0.295834111,37.9568893 C0.295834111,51.8497612 9.14269175,64.4331831 22.3089935,69.2697815 C22.4853597,69.3342964 22.6647844,69.3645377 22.8411506,69.3645377 C23.4609812,69.3645377 24.0461501,68.987529 24.2745087,68.37867 C24.5681127,67.5954193 24.1654267,66.7254767 23.3733078,66.4341518 C11.3987526,62.0370609 3.35318904,50.5927295 3.35318904,37.9568893 C3.35318904,22.3362287 15.3440555,9.43728887 30.7011728,7.77502318 L28.529727,10.4302129 C27.9985893,11.0804017 28.1005351,12.0319959 28.7570661,12.5571872 C29.039456,12.7829892 29.3799551,12.8928661 29.7173957,12.8928661 C30.1639184,12.8928661 30.6053437,12.7013376 30.9071033,12.3313852 L35.2530533,7.01798161 C35.2550923,7.01495748 35.2561117,7.01294139 35.2581506,7.01193334 Z" id="Shape"></path>
        </g>
    </g>
</svg>