<?xml version="1.0" encoding="UTF-8"?>
<svg width="21px" height="20px" viewBox="0 0 21 20" version="1.1" xmlns="http://www.w3.org/2000/svg" xmlns:xlink="http://www.w3.org/1999/xlink">
    <!-- Generator: Sketch 43.2 (39069) - http://www.bohemiancoding.com/sketch -->
    <title>Page 1</title>
    <desc>Created with Sketch.</desc>
    <defs></defs>
    <g id="Page-1" stroke="none" stroke-width="1" fill="none" fill-rule="evenodd">
        <g id="Personal" transform="translate(-1142.000000, -103.000000)" fill="#5BBEFF">
            <g id="Group-14">
                <g id="Group">
                    <g id="Group-13">
                        <g id="Group-10">
                            <g id="Group-8">
                                <g id="Group-4">
                                    <g id="Subnav" transform="translate(0.000000, 80.000000)">
                                        <path d="M1153.97133,31.1818182 C1153.97133,29.1735455 1152.34305,27.5454545 1150.33456,27.5454545 L1150.33456,25.7272727 C1153.34735,25.7272727 1155.78971,28.1693636 1155.78971,31.1818182 L1153.97133,31.1818182 Z M1156.95794,35.9862727 C1157.9385,34.6370909 1158.51729,32.9771818 1158.51729,31.1818182 C1158.51729,26.6630909 1154.85379,23 1150.33456,23 C1145.81532,23 1142.15182,26.6630909 1142.15182,31.1818182 C1142.15182,35.7005455 1145.81532,39.3636364 1150.33456,39.3636364 C1152.13012,39.3636364 1153.79022,38.7849091 1155.13955,37.8044545 L1160.33568,43 L1162.15407,41.1818182 L1156.95794,35.9862727 Z" id="Page-1"></path>
                                    </g>
                                </g>
                            </g>
                        </g>
                    </g>
                </g>
            </g>
        </g>
    </g>
</svg>