<svg id="Capa_1" data-name="Capa 1" xmlns="http://www.w3.org/2000/svg" xmlns:xlink="http://www.w3.org/1999/xlink" viewBox="0 0 243.78 153.07"><defs><style>.cls-1,.cls-12,.cls-13{fill:none;}.cls-2{fill:url(#linear-gradient);}.cls-3{fill:#d8ebf8;}.cls-4{fill:#b2d6f1;}.cls-5{fill:#84bae6;}.cls-6{fill:#2c9eda;}.cls-7{fill:#0071b6;}.cls-8{fill:#005391;}.cls-14,.cls-15,.cls-9{fill:#fff;}.cls-10{clip-path:url(#clip-path);}.cls-11{fill:url(#linear-gradient-2);}.cls-12{stroke:#5f6367;}.cls-12,.cls-13{stroke-width:0.31px;}.cls-13{stroke:#55585b;}.cls-14{fill-rule:evenodd;}.cls-15{font-size:6px;font-family:StagSans-Light, Stag Sans;letter-spacing:0.26em;}</style><linearGradient id="linear-gradient" x1="-0.34" y1="76.54" x2="243.65" y2="76.54" gradientUnits="userSpaceOnUse"><stop offset="0" stop-color="#94979e"/><stop offset="0" stop-color="#93969d"/><stop offset="0.09" stop-color="#72787e"/><stop offset="0.17" stop-color="#596065"/><stop offset="0.26" stop-color="#464f54"/><stop offset="0.36" stop-color="#3c4549"/><stop offset="0.46" stop-color="#384246"/><stop offset="0.7" stop-color="#3a4448"/><stop offset="0.8" stop-color="#414a4f"/><stop offset="0.88" stop-color="#4e555a"/><stop offset="0.94" stop-color="#5f656a"/><stop offset="0.99" stop-color="#767a80"/><stop offset="1" stop-color="#797c82"/></linearGradient><clipPath id="clip-path"><path class="cls-1" d="M17.42,50.34a3.8,3.8,0,0,0-3.74,3.85V77.68a3.8,3.8,0,0,0,3.74,3.84H46.8a3.81,3.81,0,0,0,3.74-3.84V54.19a3.8,3.8,0,0,0-3.74-3.85Z"/></clipPath><linearGradient id="linear-gradient-2" x1="-118.42" y1="680.92" x2="-117.42" y2="680.92" gradientTransform="translate(4377.45 -25025.62) scale(36.85)" gradientUnits="userSpaceOnUse"><stop offset="0" stop-color="#94979e"/><stop offset="0.08" stop-color="#94979e"/><stop offset="0.17" stop-color="#b8bcc1"/><stop offset="0.2" stop-color="#c6cbcf"/><stop offset="0.24" stop-color="#b8bcc1"/><stop offset="0.32" stop-color="#94979e"/><stop offset="0.47" stop-color="#b8bcc1"/><stop offset="0.52" stop-color="#c6cbcf"/><stop offset="0.55" stop-color="#b8bcc1"/><stop offset="0.64" stop-color="#94979e"/><stop offset="1" stop-color="#94979e"/></linearGradient></defs><title>Mesa de trabajo 1</title><rect class="cls-2" x="-0.34" width="243.99" height="153.07" rx="12.82" ry="12.82"/><rect class="cls-3" x="203.46" y="38.21" width="40.32" height="4.25"/><rect class="cls-4" x="163.02" y="38.21" width="40.44" height="4.25"/><rect class="cls-5" x="122.58" y="38.21" width="40.44" height="4.25"/><rect class="cls-6" x="82.13" y="38.21" width="40.44" height="4.25"/><rect class="cls-7" x="41.69" y="38.21" width="40.44" height="4.25"/><rect class="cls-8" y="38.21" width="41.69" height="4.25"/><path class="cls-9" d="M49.45,12.69H47L43.11,25.46h2l.84-2.75h4.64l.84,2.75h3.46L51,14c-.35-1-.55-1.29-1.55-1.29m-3,8.13L48.24,15,50,20.83Z"/><path class="cls-9" d="M31.66,17.7l.63-.92c1.32-2,.41-4.08-2.19-4.08H24.53V25.46H29.9c4.72,0,6.13-5.5,1.77-7.76m-3.22,6.06h-.91v-9.4h1.64a1.45,1.45,0,0,1,1.15,2.36l-1.06,1.6A2.44,2.44,0,0,1,31.12,21a2.46,2.46,0,0,1-2.67,2.74"/><path class="cls-9" d="M20.86,17.7l.62-.92c1.32-2,.42-4.08-2.2-4.08H13.73V25.46h5.36c4.71,0,6.14-5.5,1.77-7.76m-3.22,6.06h-.9v-9.4h1.63a1.45,1.45,0,0,1,1.15,2.36l-1.07,1.6A2.44,2.44,0,0,1,20.31,21a2.46,2.46,0,0,1-2.67,2.74"/><path class="cls-9" d="M42.58,12.69,39.7,22.39l-2.42-8c-.45-1.44-.68-1.66-1.56-1.66H33.47l4.18,12.76h3.07L44.6,12.69Z"/><g class="cls-10"><rect class="cls-11" x="13.68" y="50.34" width="36.85" height="31.18"/></g><path class="cls-12" d="M50.54,77.68a3.81,3.81,0,0,1-3.74,3.85H17.42a3.81,3.81,0,0,1-3.74-3.85V54.18a3.81,3.81,0,0,1,3.74-3.85H46.8a3.81,3.81,0,0,1,3.74,3.85Z"/><polyline class="cls-13" points="13.68 77.21 31.42 77.21 31.42 81.37"/><polyline class="cls-13" points="50.5 77.21 32.46 77.21 32.46 81.37"/><polyline class="cls-13" points="13.68 54.5 31.42 54.5 31.42 50.34"/><polyline class="cls-13" points="50.5 54.5 32.46 54.5 32.46 50.34"/><path class="cls-13" d="M29.22,54.58A7.54,7.54,0,0,0,26,60.63c-.07,3,1,4.09.89,5.3s-1.18,2.34-1,5.07,2.21,5.6,3.69,6.28"/><path class="cls-13" d="M50.5,62H38.05A4.28,4.28,0,0,1,38,63.66c-.22.91-.66,1.36-.66,2s1,2.79,1,4.39-1,5.67-3.68,7.12"/><line class="cls-13" x1="25.9" y1="62.15" x2="13.68" y2="62.15"/><line class="cls-13" x1="25.9" y1="69.57" x2="13.68" y2="69.57"/><line class="cls-13" x1="50.42" y1="69.57" x2="38.2" y2="69.57"/><path class="cls-14" d="M77.8,80.65a1.74,1.74,0,0,1-1.07-1.25c-.07-.35,0-.6.52-1.58a24.77,24.77,0,0,0,2.94-12,24.39,24.39,0,0,0-2.75-11.6,12.1,12.1,0,0,1-.77-1.77,1.8,1.8,0,0,1,.74-1.29,1.68,1.68,0,0,1,1.84.13,8.67,8.67,0,0,1,.94,1.54A29.32,29.32,0,0,1,83,61.71a35,35,0,0,1,.12,7.41,29.15,29.15,0,0,1-2.69,9.09c-.84,1.74-1.37,2.45-1.81,2.45a1.29,1.29,0,0,0-.32,0,1.32,1.32,0,0,1-.54-.06Zm-5.71-3A1.56,1.56,0,0,1,71,75.88c.05-.16.4-.92.77-1.67a18.66,18.66,0,0,0,1.9-10,18.08,18.08,0,0,0-2-7.07c-.84-1.71-.88-2-.39-2.67a1.6,1.6,0,0,1,2.23-.21,20.59,20.59,0,0,1,2.24,4.68,22.2,22.2,0,0,1-.73,15.68c-1.1,2.58-1.87,3.38-3,3.06Zm-5.88-3a1.78,1.78,0,0,1-1-1.17c-.06-.29,0-.62.58-1.71A12.54,12.54,0,0,0,65.91,60c-.85-1.72-.87-2.06-.15-2.74a1.14,1.14,0,0,1,1-.39c.83,0,1.27.42,2,2a14.87,14.87,0,0,1,1.61,7,14.28,14.28,0,0,1-1.67,7c-.7,1.42-1,1.8-1.75,1.89a1.66,1.66,0,0,1-.76-.11Zm-5.49-2.82a1.86,1.86,0,0,1-.89-1.06c-.14-.48,0-.85.52-1.74a5.07,5.07,0,0,0,.85-3.24,5.08,5.08,0,0,0-.85-3.24,6.26,6.26,0,0,1-.52-1,1.57,1.57,0,0,1,1.24-1.83c.71-.13,1.2.18,1.86,1.21a9.24,9.24,0,0,1,0,9.86c-.67,1-1.42,1.4-2.2,1.08Z"/><path class="cls-9" d="M193.3,119.93l-4.56,11.52-1.84-9.79a2,2,0,0,0-2-1.73h-7.45l-.1.49a18.27,18.27,0,0,1,4.32,1.44,1.85,1.85,0,0,1,1,1.49l3.49,13.5h4.63l7.09-16.92Zm6.48,0-3.62,16.92h4.38l3.62-16.92Zm25.09,4.57,1.33,6.35h-3.63Zm-.64-4.57a2,2,0,0,0-1.86,1.24l-6.57,15.68h4.6l.91-2.53h5.61l.53,2.53h4L228,119.93Zm-18.88,5.29c0,2.43,2.17,3.79,3.83,4.6s2.27,1.36,2.27,2.1c0,1.13-1.36,1.64-2.62,1.66a9.23,9.23,0,0,1-4.49-1.07l-.79,3.7a13.23,13.23,0,0,0,4.87.9c4.6,0,7.6-2.27,7.62-5.79,0-4.46-6.17-4.71-6.13-6.7,0-.61.59-1.25,1.86-1.42a8.27,8.27,0,0,1,4.32.75l.77-3.58a11.75,11.75,0,0,0-4.09-.75c-4.33,0-7.37,2.3-7.4,5.59"/><text class="cls-15" transform="translate(198.79 143.44)">Platinum</text></svg>