<?xml version="1.0" encoding="utf-8"?>
<!-- Generator: Adobe Illustrator 20.1.0, SVG Export Plug-In . SVG Version: 6.00 Build 0)  -->
<svg version="1.1" id="Capa_1" xmlns="http://www.w3.org/2000/svg" xmlns:xlink="http://www.w3.org/1999/xlink" x="0px" y="0px"
	 viewBox="0 0 243.8 153.1" style="enable-background:new 0 0 243.8 153.1;" xml:space="preserve">
<style type="text/css">
	.st0{fill:#FFFFFF;}
	.st1{fill:none;}
	.st2{fill:url(#SVGID_1_);}
	.st3{fill:#C2D7E9;}
	.st4{fill:#A8C9E9;}
	.st5{fill:#7FB2E2;}
	.st6{fill:#5599DB;}
	.st7{fill:#005DB4;}
	.st8{fill:#003383;}
	.st9{clip-path:url(#SVGID_3_);fill:url(#SVGID_4_);}
	.st10{fill:none;stroke:#5F6367;stroke-width:0.313;}
	.st11{fill:none;stroke:#55585B;stroke-width:0.313;}
	.st12{fill:#0058A0;}
	.st13{fill-rule:evenodd;clip-rule:evenodd;fill:#FFFFFF;}
</style>
<path class="st0" d="M233.3,153H10.7c-5.8,0-10.4-4.7-10.4-10.4V10.4C0.3,4.6,5-0.1,10.7-0.1h222.6c5.8,0,10.4,4.7,10.4,10.4v132.2
	C243.8,148.3,239.1,153,233.3,153z"/>
<g>
	<path class="st1" d="M10.3-0.5c-5.5,0-10,4.4-10,9.9v28.1h243.5V9.4c0-5.5-4.5-9.9-10-9.9H10.3z"/>
	
		<linearGradient id="SVGID_1_" gradientUnits="userSpaceOnUse" x1="-113.7355" y1="691.5339" x2="-112.6097" y2="691.5339" gradientTransform="matrix(-196 -86.6666 -86.6666 196 37882.1641 -145251.6094)">
		<stop  offset="0" style="stop-color:#CDAC5F"/>
		<stop  offset="1.226810e-02" style="stop-color:#CDAC5F"/>
		<stop  offset="2.386354e-02" style="stop-color:#CBAA5F"/>
		<stop  offset="0.1633" style="stop-color:#B49A58"/>
		<stop  offset="0.3069" style="stop-color:#A69053"/>
		<stop  offset="0.4601" style="stop-color:#A28D52"/>
		<stop  offset="0.762" style="stop-color:#A48F53"/>
		<stop  offset="0.9024" style="stop-color:#AE9758"/>
		<stop  offset="1" style="stop-color:#BCA45F"/>
	</linearGradient>
	<path class="st2" d="M0.3,142.6c0,5.5,4.5,9.9,10,9.9h223.6c5.5,0,10-4.4,10-9.9V37.5H0.3V142.6z"/>
</g>
<g>
	<rect x="230.3" y="12" class="st3" width="13.5" height="12.7"/>
	<rect x="216.7" y="12" class="st4" width="13.6" height="12.7"/>
	<rect x="203" y="12" class="st5" width="13.6" height="12.7"/>
	<rect x="189.4" y="12" class="st6" width="13.6" height="12.7"/>
	<rect x="175.8" y="12" class="st7" width="13.6" height="12.7"/>
	<rect x="162.2" y="12" class="st8" width="13.6" height="12.7"/>
</g>
<g>
	<path class="st0" d="M93.5,65.9c0-6.6,4.1-9.9,9.3-9.9c2.8,0,4.5,0.7,5.8,1.5v1.3h-0.7c-1-1-2.6-1.6-5.1-1.6
		c-4.4,0-7.6,2.7-7.6,8.6s2.8,8.8,7.5,8.8c2.6,0,4-0.5,5-1.1v-6.2h-4.4v-1.2h5.9v8.1c-1.4,0.8-3.3,1.6-6.5,1.6
		C97,75.9,93.5,72.6,93.5,65.9z"/>
	<path class="st0" d="M112.2,68.5c0-4.6,2.8-7.4,6.8-7.4c4.1,0,6.9,2.9,6.9,7.4c0,4.6-2.7,7.4-6.9,7.4
		C115,75.9,112.2,73.1,112.2,68.5z M124.5,68.5c0-4-2.1-6.4-5.4-6.4c-3.3,0-5.4,2.4-5.4,6.4c0,4,2.1,6.3,5.4,6.3
		C122.4,74.8,124.5,72.5,124.5,68.5z"/>
	<path class="st0" d="M128.9,75.8V56.2h0.5c0.8,0,0.9,0.2,0.9,1.3v18.3H128.9z"/>
	<path class="st0" d="M144.6,73.3c-1.2,1.5-3.1,2.6-5.4,2.6c-3,0-5.8-1.8-5.8-7.3c0-5.7,3.3-7.6,6.3-7.6c2.3,0,3.8,0.7,4.9,1.8v-6.7
		h0.5c0.8,0,1,0.2,1,1.3v18.3h-0.7c-0.6,0-0.7-0.3-0.7-1.6V73.3z M144.6,71.9v-7.7c-1.2-1.2-2.5-2-4.7-2c-2.5,0-5.1,1.3-5.1,6.4
		c0,4.8,2.3,6.2,4.5,6.2C141.7,74.8,143.3,73.6,144.6,71.9z"/>
</g>
<g>
	<g>
		<defs>
			<path id="SVGID_2_" d="M19.8,49.7c-2.1,0-3.8,1.7-3.8,3.8V77c0,2.1,1.7,3.8,3.8,3.8h29.7c2.1,0,3.8-1.7,3.8-3.8V53.5
				c0-2.1-1.7-3.8-3.8-3.8H19.8z"/>
		</defs>
		<clipPath id="SVGID_3_">
			<use xlink:href="#SVGID_2_"  style="overflow:visible;"/>
		</clipPath>
		
			<linearGradient id="SVGID_4_" gradientUnits="userSpaceOnUse" x1="-118.3594" y1="680.905" x2="-117.3488" y2="680.905" gradientTransform="matrix(36.8493 0 0 36.8493 4377.4453 -25025.6172)">
			<stop  offset="0" style="stop-color:#CFAA53"/>
			<stop  offset="7.618710e-02" style="stop-color:#CFAA53"/>
			<stop  offset="0.1006" style="stop-color:#D4B35E"/>
			<stop  offset="0.1452" style="stop-color:#E2CD7B"/>
			<stop  offset="0.2045" style="stop-color:#F7F4AF"/>
			<stop  offset="0.2048" style="stop-color:#F7F4AF"/>
			<stop  offset="0.2536" style="stop-color:#E4D180"/>
			<stop  offset="0.2963" style="stop-color:#D4B45F"/>
			<stop  offset="0.319" style="stop-color:#CFAA53"/>
			<stop  offset="0.3518" style="stop-color:#D3B25E"/>
			<stop  offset="0.4115" style="stop-color:#DFC779"/>
			<stop  offset="0.4909" style="stop-color:#F1E9AB"/>
			<stop  offset="0.5238" style="stop-color:#F8F6C2"/>
			<stop  offset="0.5366" style="stop-color:#F4EEB2"/>
			<stop  offset="0.584" style="stop-color:#E0C97C"/>
			<stop  offset="0.6192" style="stop-color:#D3B25E"/>
			<stop  offset="0.6381" style="stop-color:#CFAA53"/>
			<stop  offset="1" style="stop-color:#CFAA53"/>
		</linearGradient>
		<rect x="16" y="49.7" class="st9" width="37.2" height="31.2"/>
	</g>
	<g>
		<path class="st10" d="M53.2,77c0,2.1-1.7,3.8-3.8,3.8H19.8c-2.1,0-3.8-1.7-3.8-3.8V53.5c0-2.1,1.7-3.8,3.8-3.8h29.7
			c2.1,0,3.8,1.7,3.8,3.8V77z"/>
	</g>
	<polyline class="st11" points="16,76.5 33.9,76.5 33.9,80.7 	"/>
	<polyline class="st11" points="53.2,76.5 35,76.5 35,80.7 	"/>
	<polyline class="st11" points="16,53.8 33.9,53.8 33.9,49.7 	"/>
	<polyline class="st11" points="53.2,53.8 35,53.8 35,49.7 	"/>
	<g>
		<path class="st11" d="M31.7,53.9c-1.4,0.9-3.2,3-3.3,6.1c-0.1,3,1,4.1,0.9,5.3c-0.1,1.2-1.2,2.3-1,5.1c0.2,2.7,2.2,5.6,3.7,6.3"/>
		<path class="st11" d="M53.2,61.3H40.6c0,0,0.1,0.8-0.1,1.7c-0.2,0.9-0.7,1.4-0.7,2c0,0.6,1,2.8,1,4.4c-0.1,1.6-1,5.7-3.7,7.1"/>
	</g>
	<line class="st11" x1="28.3" y1="61.5" x2="16" y2="61.5"/>
	<line class="st11" x1="28.3" y1="68.9" x2="16" y2="68.9"/>
	<line class="st11" x1="53.1" y1="68.9" x2="40.8" y2="68.9"/>
</g>
<g>
	<path class="st0" d="M238.6,145c0,0.8-0.7,1.5-1.5,1.5h-55.7c-0.8,0-1.5-0.7-1.5-1.5v-24.7c0-0.8,0.7-1.5,1.5-1.5h55.7
		c0.8,0,1.5,0.7,1.5,1.5V145"/>
	<polygon class="st12" points="199.9,140.9 202.7,124.2 207,124.2 204.3,140.9 	"/>
	<path class="st12" d="M220.2,124.6c-0.9-0.3-2.2-0.7-3.9-0.7c-4.3,0-7.4,2.3-7.4,5.5c0,2.4,2.2,3.7,3.8,4.5
		c1.7,0.8,2.3,1.3,2.3,2.1c0,1.1-1.4,1.6-2.6,1.6c-1.7,0-2.7-0.3-4.1-0.9l-0.6-0.3l-0.6,3.7c1,0.5,2.9,0.9,4.9,0.9
		c4.6,0,7.6-2.2,7.6-5.7c0-1.9-1.2-3.4-3.7-4.5c-1.5-0.8-2.5-1.3-2.5-2.1c0-0.7,0.8-1.4,2.5-1.4c1.4,0,2.5,0.3,3.3,0.6l0.4,0.2
		L220.2,124.6"/>
	<path class="st12" d="M231.4,124.2H228c-1,0-1.8,0.3-2.3,1.4l-6.5,15.3h4.6c0,0,0.7-2.1,0.9-2.5c0.5,0,5,0,5.6,0
		c0.1,0.6,0.5,2.5,0.5,2.5h4.1L231.4,124.2 M226,135c0.4-1,1.7-4.7,1.7-4.7c0,0,0.4-1,0.6-1.6l0.3,1.4c0,0,0.8,4,1,4.8H226z"/>
	<path class="st12" d="M196.3,124.2l-4.3,11.4l-0.5-2.3c-0.8-2.7-3.3-5.6-6-7l3.9,14.6l4.6,0l6.9-16.7H196.3"/>
	<path class="st12" d="M188,124.2h-7l-0.1,0.3c5.5,1.4,9.1,4.7,10.6,8.8l-1.5-7.7C189.8,124.6,189,124.2,188,124.2"/>
	<path class="st12" d="M236.3,139c0.5,0,1,0.4,1,1c0,0.5-0.4,1-1,1c-0.5,0-1-0.4-1-1C235.3,139.4,235.8,139,236.3,139 M236.3,140.7
		c0.4,0,0.8-0.4,0.8-0.8c0-0.4-0.3-0.8-0.8-0.8c-0.4,0-0.8,0.4-0.8,0.8C235.5,140.4,235.9,140.7,236.3,140.7 M235.9,139.4h0.4
		c0.1,0,0.3,0,0.3,0.3c0,0.1,0,0.2-0.2,0.2v0c0.1,0,0.1,0.1,0.1,0.2c0,0.1,0,0.2,0,0.2h-0.2c0,0,0-0.1,0-0.2c0-0.1,0-0.2-0.2-0.2
		h-0.1v0.4h-0.2V139.4z M236.1,139.8h0.2c0.1,0,0.2-0.1,0.2-0.2c0-0.1-0.1-0.1-0.2-0.1h-0.2V139.8z"/>
</g>
<g>
	<path class="st8" d="M49.1,20.1l1.8-5.9l1.8,5.9H49.1z M53.7,13.2c-0.4-1.1-0.6-1.3-1.6-1.3h-2.5l-4,12.9h2l0.9-2.8h4.7l0.9,2.8
		h3.5L53.7,13.2z"/>
	<path class="st8" d="M29.7,23.1v-9.5h1.7c0.8,0,1.5,0.7,1.5,1.5c0,0.3-0.1,0.5-0.3,0.9l-1.1,1.6c1.1,0.3,1.9,1.1,1.9,2.7
		c0,1.9-1.2,2.8-2.7,2.8H29.7z M34,16.9l0.6-0.9c1.3-2,0.4-4.1-2.2-4.1h-5.7v12.9h5.5C37,24.8,38.4,19.2,34,16.9"/>
	<path class="st8" d="M19.6,23.1h-0.9v-9.5h1.7c0.8,0,1.5,0.7,1.5,1.5c0,0.3-0.1,0.5-0.3,0.9l-1.1,1.6c1.1,0.3,1.9,1.1,1.9,2.7
		C22.4,22.2,21.2,23.1,19.6,23.1 M22.9,16.9l0.6-0.9c1.3-2,0.4-4.1-2.2-4.1h-5.7v12.9h5.5C25.9,24.8,27.4,19.2,22.9,16.9"/>
	<path class="st8" d="M39.7,13.6c-0.5-1.5-0.7-1.7-1.6-1.7h-2.3l4.3,12.9h3.1l4-12.9h-2.1l-2.9,9.8L39.7,13.6z"/>
	<line class="st8" x1="15.7" y1="11.9" x2="21.1" y2="11.9"/>
</g>
<g>
	<path class="st13" d="M79.8,80.8c-0.5-0.1-1-0.7-1.1-1.3c-0.1-0.4,0-0.6,0.6-1.7c2.2-4.2,3.1-8,3.1-12.7c0-4.5-0.8-8-2.9-12.2
		c-0.4-0.9-0.8-1.7-0.8-1.9c0-0.4,0.4-1.1,0.8-1.4c0.6-0.4,1.5-0.3,2,0.1c0.2,0.2,0.6,0.9,1,1.6c1.5,2.9,2.5,6.1,3,9.4
		c0.3,2.1,0.4,5.9,0.1,7.8c-0.5,3.5-1.4,6.6-2.9,9.6c-0.9,1.8-1.5,2.6-1.9,2.6c-0.1,0-0.2,0-0.3,0.1C80.3,80.9,80,80.8,79.8,80.8
		L79.8,80.8L79.8,80.8z M73.7,77.6c-0.8-0.2-1.3-1.2-1.1-1.9c0.1-0.2,0.4-1,0.8-1.8c1.7-3.4,2.4-7,2-10.5c-0.3-2.9-0.8-4.8-2.1-7.5
		c-0.9-1.8-0.9-2.1-0.4-2.8c0.5-0.7,1.7-0.8,2.4-0.2c0.4,0.4,1.8,3.3,2.4,4.9c1.8,5.4,1.5,11.2-0.8,16.5
		C75.7,77.1,74.9,78,73.7,77.6L73.7,77.6z M67.5,74.4c-0.5-0.2-0.9-0.7-1-1.2c-0.1-0.3,0-0.7,0.6-1.8c2.1-4.2,2.1-8.3,0.1-12.4
		c-0.9-1.8-0.9-2.2-0.2-2.9c0.4-0.4,0.5-0.4,1.1-0.4c0.9,0,1.3,0.4,2.1,2.1c1.2,2.5,1.7,4.6,1.7,7.4c0,2.8-0.5,4.8-1.8,7.4
		c-0.7,1.5-1.1,1.9-1.9,2C68,74.6,67.7,74.5,67.5,74.4L67.5,74.4L67.5,74.4z M61.6,71.5c-0.4-0.2-0.8-0.7-0.9-1.1
		c-0.1-0.5,0-0.9,0.5-1.8c0.7-1.2,0.9-1.8,0.9-3.4c0-1.6-0.2-2.2-0.9-3.4c-0.3-0.4-0.5-0.9-0.6-1.1c-0.2-0.8,0.4-1.8,1.3-1.9
		c0.8-0.1,1.3,0.2,2,1.3c2,3.1,2,7.3,0,10.4C63.2,71.4,62.5,71.8,61.6,71.5L61.6,71.5L61.6,71.5z"/>
</g>
</svg>
