<?xml version="1.0" encoding="UTF-8" standalone="no"?>
<svg width="39px" height="39px" viewBox="0 0 39 39" version="1.1" xmlns="http://www.w3.org/2000/svg" xmlns:xlink="http://www.w3.org/1999/xlink">
    <!-- Generator: Sketch 42 (36781) - http://www.bohemiancoding.com/sketch -->
    <title>ico-aport</title>
    <desc>Created with Sketch.</desc>
    <defs></defs>
    <g id="Page-1" stroke="none" stroke-width="1" fill="none" fill-rule="evenodd">
        <g id="ico-aport" transform="translate(1.000000, 1.000000)">
            <g id="Page-1" fill-rule="nonzero" stroke="#70CDF7" fill="#FFFFFF">
                <g id="ico-aport">
                    <g id="Propuesta-final">
                        <g id="Ãconos-extendidos">
                            <g id="Group-4">
                                <circle id="Oval" cx="18.5" cy="18.5" r="18.5"></circle>
                            </g>
                        </g>
                    </g>
                </g>
            </g>
            <path d="M17.1332881,13 L17.0617966,13.3220339 L10.2881356,13.3220339 L9,17.8305085 L16.4071017,17.8305085 L16.4071017,18.4745763 L9,18.4745763 L9,19.1186441 L16.4071017,19.1186441 L16.4071017,19.7627119 L9,19.7627119 L9,20.4067797 L16.4071017,20.4067797 L16.4071017,21.0508475 L9,21.0508475 L9,21.6949153 L16.4071017,21.6949153 L16.4071017,22.3389831 L9,22.3389831 L9,22.9830508 L16.4071017,22.9830508 L16.4071017,23.6271186 L9,23.6271186 L9,24.2711864 L16.4071017,24.2711864 L16.4071017,24.5932203 L20.5932203,24.5932203 L20.5932203,24.2711864 L28.000322,24.2711864 L28.000322,23.6271186 L20.5932203,23.6271186 L20.5932203,22.9830508 L28.000322,22.9830508 L28.000322,22.3389831 L20.5932203,22.3389831 L20.5932203,21.6949153 L28.000322,21.6949153 L28.000322,21.0508475 L20.5932203,21.0508475 L20.5932203,20.4067797 L28.000322,20.4067797 L28.000322,19.7627119 L20.5932203,19.7627119 L20.5932203,19.1186441 L28.000322,19.1186441 L28.000322,18.4745763 L20.5932203,18.4745763 L20.5932203,17.8305085 L28.000322,17.8305085 L26.7118644,13.3220339 L19.9385254,13.3220339 L19.8667119,13 L17.1332881,13 Z M20.153,14.2881356 L25.8546102,14.2881356 L26.3898305,16.8644068 L20.3677966,16.8644068 L20.153,14.2881356 Z M11.1453898,14.2881356 L16.847322,14.2881356 L16.6325254,16.8644068 L10.6104915,16.8644068 L11.1453898,14.2881356 Z" id="Page-1" fill="#00A0E9"></path>
        </g>
    </g>
</svg>