<?xml version="1.0" encoding="UTF-8" standalone="no"?>
<svg width="39px" height="39px" viewBox="0 0 39 39" version="1.1" xmlns="http://www.w3.org/2000/svg" xmlns:xlink="http://www.w3.org/1999/xlink">
    <!-- Generator: Sketch 42 (36781) - http://www.bohemiancoding.com/sketch -->
    <title>Group 5</title>
    <desc>Created with Sketch.</desc>
    <defs></defs>
    <g id="Propuesta-final" stroke="none" stroke-width="1" fill="none" fill-rule="evenodd">
        <g transform="translate(-828.000000, -454.000000)" id="Group-5">
            <g transform="translate(829.000000, 455.000000)">
                <circle id="Oval" stroke="#70CDF7" fill="#FFFFFF" cx="18.5" cy="18.5" r="18.5"></circle>
                <g id="Page-1" transform="translate(11.000000, 10.000000)" fill="#009EE5">
                    <path d="M13.4423484,3.54239834 C12.4558375,1.34165584 10.4968732,6.54040788e-05 8.16827743,6.54040788e-05 C8.04479129,6.54040788e-05 7.92185643,-0.0010474872 7.79837029,0.00590808329 C5.43035816,0.148358167 3.52734853,1.73395001 2.7189002,4.04236475 C1.88536875,6.42200452 2.91956518,9.1491446 4.40773856,11.1108937 C2.63620859,12.1155563 0.433028408,14.8246119 0,16.7721716 L1.1130291,16.7721716 C2.97359037,12.5988293 6.02491085,11.4450393 6.02491085,11.4450393 L5.26662877,10.4234051 C3.96037694,8.70092764 3.18803728,6.60173646 3.62382208,4.84698514 L5.28840422,3.57161174 L12.7615208,4.91876663 C13.1851775,6.90277355 12.0914431,9.07040754 10.9514015,10.4985253 L10.1727221,11.5184901 C10.1727221,11.5184901 12.8640584,12.3206065 14.8828363,16.7721716 L16,16.7721716 C15.4977863,14.8246119 13.459438,12.2396437 11.7937533,11.2283037 C13.4657777,9.13412057 14.5766017,6.07200022 13.4423484,3.54239834 Z" id="Fill-1"></path>
                </g>
            </g>
        </g>
    </g>
</svg>