<?xml version="1.0" encoding="UTF-8" standalone="no"?>
<svg width="39px" height="39px" viewBox="0 0 39 39" version="1.1" xmlns="http://www.w3.org/2000/svg" xmlns:xlink="http://www.w3.org/1999/xlink">
    <!-- Generator: Sketch 42 (36781) - http://www.bohemiancoding.com/sketch -->
    <title>Group 2</title>
    <desc>Created with Sketch.</desc>
    <defs></defs>
    <g id="Propuesta-final" stroke="none" stroke-width="1" fill="none" fill-rule="evenodd">
        <g transform="translate(-828.000000, -326.000000)" id="Group-2">
            <g transform="translate(829.000000, 327.000000)">
                <circle id="Oval" stroke="#70CDF7" fill="#FFFFFF" cx="18.5" cy="18.5" r="18.5"></circle>
                <g id="icn_t-iconLib_C01-64px" transform="translate(8.000000, 10.000000)">
                    <g id="Layer_1" transform="translate(1.000000, 1.000000)">
                        <g id="Group"></g>
                    </g>
                    <path d="M14.371875,4.96923077 L14.371875,6.21153846 C14.371875,6.96346154 14.7984375,7.42115385 15.35625,7.42115385 C15.5859375,7.42115385 15.8484375,7.35576923 16.14375,7.19230769 L20.2453125,4.83846154 C21.196875,4.31538462 21.196875,3.4 20.278125,2.84423077 L16.1109375,0.359615385 C15.8484375,0.196153846 15.553125,0.0980769231 15.3234375,0.0980769231 C14.7984375,0.0980769231 14.371875,0.523076923 14.371875,1.275 L14.371875,1.99423077 L13.0265625,1.99423077 C12.46875,1.99423077 11.9765625,2.28846154 11.7140625,2.81153846 L7.1859375,11.8346154 L6.496875,11.8346154 L6.496875,10.7884615 C6.496875,10.0365385 6.16875,9.57884615 5.6109375,9.57884615 C5.38125,9.57884615 5.11875,9.64423077 4.85625,9.80769231 L0.7875,12.1615385 C-0.1640625,12.6846154 -0.1640625,13.6 0.7546875,14.1557692 L4.8890625,16.6403846 C5.1515625,16.8038462 5.4140625,16.9019231 5.64375,16.9019231 C6.16875,16.9019231 6.496875,16.4769231 6.496875,15.725 L6.496875,14.8096154 L8.1375,14.8096154 C8.728125,14.8096154 9.1546875,14.5807692 9.45,13.9923077 L13.9125,5.00192308 L14.371875,5.00192308 L14.371875,4.96923077 Z M8.5640625,13.5673077 C8.4984375,13.7307692 8.334375,13.7961538 8.1375,13.7961538 L5.5125,13.7961538 L5.5125,15.8884615 C5.5125,15.8884615 1.0171875,13.175 0.984375,13.1423077 C1.0171875,13.1096154 5.5125,10.5596154 5.5125,10.5596154 L5.5125,12.7826923 L7.7765625,12.7826923 L8.0390625,12.325 L12.5671875,3.26923077 C12.665625,3.10576923 12.8296875,2.975 12.99375,2.975 L15.3234375,2.975 L15.3234375,1.11153846 C15.35625,1.11153846 19.884375,3.825 19.884375,3.85769231 C19.8515625,3.89038462 15.35625,6.44038462 15.3234375,6.44038462 L15.3234375,4.02115385 L13.25625,4.02115385 L8.5640625,13.5673077 Z" id="Shape" fill="#009EE5"></path>
                    <path d="M0.7875,4.83846154 C0.7875,4.83846154 5.4140625,7.42115385 5.6109375,7.42115385 C6.16875,7.42115385 6.496875,6.96346154 6.496875,6.21153846 L6.496875,4.96923077 L7.0875,4.96923077 L8.3015625,7.48653846 L8.859375,6.44038462 L7.7109375,3.98846154 L5.5453125,3.98846154 L5.5453125,6.40769231 C5.5453125,6.40769231 1.05,3.85769231 1.0171875,3.825 C1.05,3.79230769 5.5453125,1.07884615 5.5453125,1.07884615 L5.5453125,2.975 L8.00625,2.975 C8.203125,2.975 8.3671875,3.13846154 8.4328125,3.30192308 L9.4171875,5.32884615 L9.975,4.25 L9.31875,2.84423077 C9.05625,2.35384615 8.5640625,1.96153846 8.00625,1.96153846 L6.5296875,1.96153846 L6.5296875,1.30769231 C6.5296875,0.555769231 6.234375,0.130769231 5.6765625,0.130769231 C5.446875,0.130769231 5.184375,0.196153846 4.921875,0.392307692 L0.7546875,2.84423077 C-0.1640625,3.4 -0.1640625,4.31538462 0.7875,4.83846154 Z" id="Shape" fill="#009EE5"></path>
                    <path d="M20.2453125,12.1615385 L16.14375,9.80769231 C15.88125,9.64423077 15.5859375,9.57884615 15.35625,9.57884615 C14.7984375,9.57884615 14.371875,10.0365385 14.371875,10.7884615 L14.371875,11.8346154 L13.8140625,11.8346154 L12.6984375,9.67692308 L12.140625,10.8211538 L13.190625,12.8153846 L15.3234375,12.8153846 L15.3234375,10.5923077 C15.3234375,10.5923077 19.8515625,13.1423077 19.884375,13.175 C19.8515625,13.2076923 15.3234375,15.9211538 15.3234375,15.9211538 L15.3234375,13.8288462 L14.4375,13.8288462 L12.8625,13.8288462 C12.665625,13.8288462 12.5015625,13.7961538 12.4359375,13.6326923 L11.5828125,11.9653846 L11.025,13.0769231 L11.55,14.0576923 C11.8453125,14.6461538 12.271875,14.8096154 12.8625,14.8096154 L14.371875,14.8096154 L14.371875,15.6923077 C14.371875,16.4442308 14.765625,16.8692308 15.3234375,16.8692308 C15.553125,16.8692308 15.8484375,16.8038462 16.1109375,16.6076923 L20.2453125,14.1230769 C21.1640625,13.6 21.1640625,12.6846154 20.2453125,12.1615385 Z" id="Shape" fill="#009EE5"></path>
                </g>
            </g>
        </g>
    </g>
</svg>