<?xml version="1.0" encoding="UTF-8" standalone="no"?>
<svg width="16px" height="25px" viewBox="0 0 16 25" version="1.1" xmlns="http://www.w3.org/2000/svg" xmlns:xlink="http://www.w3.org/1999/xlink">
    <!-- Generator: Sketch 42 (36781) - http://www.bohemiancoding.com/sketch -->
    <title>Page 1</title>
    <desc>Created with Sketch.</desc>
    <defs>
        <polygon id="path-1" points="16 12.20005 16 24 0 24 0 12.20005 0 0.4001 16 0.4001"></polygon>
    </defs>
    <g id="Page-1" stroke="none" stroke-width="1" fill="none" fill-rule="evenodd">
        <g>
            <path d="M6.75,19.7002 C6.75,20.5497 7.4,21.2002 8.25,21.2002 C9.1,21.2002 9.75,20.5497 9.75,19.7002 C9.75,18.8997 9.1,18.2002 8.25,18.2002 C7.4,18.2002 6.75,18.8502 6.75,19.7002 Z" id="Fill-1" fill="#009EE5"></path>
            <g id="Group-5" transform="translate(0.000000, 0.100000)">
                <mask id="mask-2" fill="white">
                    <use xlink:href="#path-1"></use>
                </mask>
                <g id="Clip-4"></g>
                <path d="M14.5,22.5001 L1.5,22.5001 L1.5,1.9001 C1.5,1.8501 14.5,1.9001 14.5,1.9001 L14.5,22.5001 M14.75,0.4001 L1.75,0.4001 C0.95,0.4001 0,1.2001 0,2.0001 L0,24.0001 L16,24.0001 L16,2.0001 C16,1.2001 15.6,0.4001 14.75,0.4001" id="Fill-3" fill="#009EE5" mask="url(#mask-2)"></path>
            </g>
            <path d="M12.0099504,3.8999 C12.0099504,3.6999 11.8898012,3.4999 11.6895524,3.4999 L4.32039802,3.4999 C4.16019901,3.4999 4,3.6499 4,3.8999 L4,16.2499 C4,16.4504 4.12014926,16.6499 4.32039802,16.6499 L11.7296022,16.6499 C11.8898012,16.6499 12.0500002,16.4999 12.0500002,16.2499 L12.0500002,3.8999 L12.0099504,3.8999 Z" id="Stroke-6" stroke="#009EE5"></path>
        </g>
    </g>
</svg>