<?xml version="1.0" encoding="UTF-8" standalone="no"?>
<svg width="39px" height="39px" viewBox="0 0 39 39" version="1.1" xmlns="http://www.w3.org/2000/svg" xmlns:xlink="http://www.w3.org/1999/xlink">
    <!-- Generator: Sketch 42 (36781) - http://www.bohemiancoding.com/sketch -->
    <title>Group 4</title>
    <desc>Created with Sketch.</desc>
    <defs>
        <polygon id="path-1" points="7.69044415 19 0 19 0 0 7.69044415 0 15.3808883 0 15.3808883 19 7.69044415 19"></polygon>
    </defs>
    <g id="Propuesta-final" stroke="none" stroke-width="1" fill="none" fill-rule="evenodd">
        <g transform="translate(-828.000000, -390.000000)" id="Group-4">
            <g transform="translate(829.000000, 391.000000)">
                <circle id="Oval" stroke="#70CDF7" fill="#FFFFFF" cx="18.5" cy="18.5" r="18.5"></circle>
                <g id="Page-1" transform="translate(11.000000, 9.000000)">
                    <polygon id="Fill-1" fill="#009EE5" points="4.1656746 5.06666667 13.4583333 5.06666667 13.4583333 4.11666667 4.1656746 4.11666667"></polygon>
                    <polygon id="Fill-2" fill="#009EE5" points="2.24305556 3.16666667 3.20436508 3.16666667 3.20436508 2.21666667 2.24305556 2.21666667"></polygon>
                    <polygon id="Fill-3" fill="#009EE5" points="4.1656746 3.16666667 13.4583333 3.16666667 13.4583333 2.21666667 4.1656746 2.21666667"></polygon>
                    <polygon id="Fill-4" fill="#009EE5" points="4.1656746 8.86666667 13.4583333 8.86666667 13.4583333 7.91666667 4.1656746 7.91666667"></polygon>
                    <polygon id="Fill-5" fill="#009EE5" points="4.1656746 10.7666667 12.4970238 10.7666667 12.4970238 9.81666667 4.1656746 9.81666667"></polygon>
                    <polygon id="Fill-6" fill="#009EE5" points="4.1656746 16.4666667 11.5357143 16.4666667 11.5357143 15.5166667 4.1656746 15.5166667"></polygon>
                    <polygon id="Fill-7" fill="#009EE5" points="2.24305556 6.96666667 3.20436508 6.96666667 3.20436508 6.01666667 2.24305556 6.01666667"></polygon>
                    <polygon id="Fill-8" fill="#009EE5" points="4.1656746 6.96666667 13.4583333 6.96666667 13.4583333 6.01666667 4.1656746 6.01666667"></polygon>
                    <polygon id="Fill-9" fill="#009EE5" points="4.1656746 14.5666667 13.4583333 14.5666667 13.4583333 13.6166667 4.1656746 13.6166667"></polygon>
                    <polygon id="Fill-10" fill="#009EE5" points="2.24305556 12.6666667 3.20436508 12.6666667 3.20436508 11.7166667 2.24305556 11.7166667"></polygon>
                    <polygon id="Fill-11" fill="#009EE5" points="4.1656746 12.6666667 13.4583333 12.6666667 13.4583333 11.7166667 4.1656746 11.7166667"></polygon>
                    <g id="Group-14">
                        <mask id="mask-2" fill="white">
                            <use xlink:href="#path-1"></use>
                        </mask>
                        <g id="Clip-13"></g>
                        <path d="M12.8065014,18.05 L12.1656284,18.05 L0.961245437,18.05 L0.961245437,0.95 L14.4195788,0.95 L14.4195788,18.05 L12.8065014,18.05 Z M14.4086839,0 L0.950350595,0 C0.469695833,0 -6.40873011e-05,0.385066667 -6.40873011e-05,0.939233333 L-6.40873011e-05,19 L12.1656284,19 L12.8065014,19 L14.4086839,19 L14.7291204,19 L15.3808883,19 L15.3808883,0.939233333 C15.3808883,0.464233333 14.9092058,0 14.4086839,0 L14.4086839,0 Z" id="Fill-12" fill="#009EE5" mask="url(#mask-2)"></path>
                    </g>
                </g>
            </g>
        </g>
    </g>
</svg>