<?xml version="1.0" encoding="UTF-8" standalone="no"?>
<svg width="39px" height="39px" viewBox="0 0 39 39" version="1.1" xmlns="http://www.w3.org/2000/svg" xmlns:xlink="http://www.w3.org/1999/xlink">
    <!-- Generator: Sketch 42 (36781) - http://www.bohemiancoding.com/sketch -->
    <title>ico-factu</title>
    <desc>Created with Sketch.</desc>
    <defs>
        <polygon id="path-1" points="14.7096774 0.0848870968 0 0.0848870968 0 9.27842016 0 18.4719532 14.7096774 18.4719532 14.7096774 0.0848870968"></polygon>
        <polygon id="path-3" points="0 14.7096774 10.4193548 14.7096774 10.4193548 7.39734355 10.4193548 0.0850096774 0 0.0850096774"></polygon>
        <polygon id="path-5" points="0 19.6129032 19 19.6129032 19 0.0848870968 0 0.0848870968"></polygon>
    </defs>
    <g id="Page-1" stroke="none" stroke-width="1" fill="none" fill-rule="evenodd">
        <g id="ico-factu" transform="translate(1.000000, 1.000000)">
            <g id="Page-1" fill-rule="nonzero" stroke="#70CDF7" fill="#FFFFFF">
                <g id="ico-factu">
                    <g id="Propuesta-final">
                        <g id="Ãconos-extendidos">
                            <g id="Group-4">
                                <circle id="Oval" cx="18.5" cy="18.5" r="18.5"></circle>
                            </g>
                        </g>
                    </g>
                </g>
            </g>
            <g id="Page-1" transform="translate(9.000000, 8.000000)">
                <polygon id="Fill-1" fill="#00A0E9" points="1.83870968 8.58067581 3.98387097 8.58067581 3.98387097 7.66132097 1.83870968 7.66132097"></polygon>
                <polygon id="Fill-2" fill="#00A0E9" points="1.83870968 6.74196613 7.35483871 6.74196613 7.35483871 5.82261129 1.83870968 5.82261129"></polygon>
                <polygon id="Fill-3" fill="#00A0E9" points="1.83870968 4.90325645 4.59677419 4.90325645 4.59677419 3.98390161 1.83870968 3.98390161"></polygon>
                <polygon id="Fill-4" fill="#00A0E9" points="1.83870968 3.06454677 5.51612903 3.06454677 5.51612903 2.14519194 1.83870968 2.14519194"></polygon>
                <polygon id="Fill-5" fill="#00A0E9" points="1.83870968 10.4193855 6.43548387 10.4193855 6.43548387 9.50003065 1.83870968 9.50003065"></polygon>
                <polygon id="Fill-6" fill="#00A0E9" points="1.83870968 12.2580952 3.98387097 12.2580952 3.98387097 11.3387403 1.83870968 11.3387403"></polygon>
                <polygon id="Fill-7" fill="#00A0E9" points="1.83870968 14.0968048 5.82258065 14.0968048 5.82258065 13.17745 1.83870968 13.17745"></polygon>
                <g id="Group-25" transform="translate(0.000000, 0.221595)">
                    <g id="Group-10">
                        <mask id="mask-2" fill="white">
                            <use xlink:href="#path-1"></use>
                        </mask>
                        <g id="Clip-9"></g>
                        <path d="M0.919354839,1.00421129 L13.7903226,1.00421129 L13.7903226,4.06872742 L14.7096774,4.06872742 L14.7096774,1.09032419 C14.7096774,0.630646774 14.2693065,0.0848564516 13.7903226,0.0848564516 L0.919354839,0.0848564516 C0.459677419,0.0848564516 0,0.554033871 0,1.09032419 L0,18.4719532 L7.66129032,18.4719532 L7.66129032,17.5525984 L0.919354839,17.5525984 L0.919354839,1.00421129 Z" id="Fill-8" fill="#00A0E9" mask="url(#mask-2)"></path>
                    </g>
                    <g id="Group-13" transform="translate(8.580645, 4.903226)">
                        <mask id="mask-4" fill="white">
                            <use xlink:href="#path-3"></use>
                        </mask>
                        <g id="Clip-12"></g>
                        <path d="M9.5,13.5688806 L9.18558065,13.5688806 L8.09767742,13.1649774 L7.68703226,13.0264613 L7.28159677,13.2636548 L6.58533871,13.6335419 L5.98285484,12.7500419 L5.48579032,12.3896548 L4.96022581,12.7129613 L3.3053871,13.725171 L2.14301613,13.3773484 L1.8328871,13.2838806 L1.53317742,13.4061548 L0.919354839,13.6549935 L0.919354839,1.00436452 L9.5,1.00436452 L9.5,13.5688806 Z M0,0.0850096774 L0,14.4882355 L0.727822581,14.4882355 L1.87885484,14.1398 L3.43470968,14.6653645 L5.43951613,13.4695903 L6.49891935,14.7098 L7.69959677,13.9859613 L8.97627419,14.4882355 L10.4193548,14.4882355 L10.4193548,0.0850096774 L0,0.0850096774 Z" id="Fill-11" fill="#00A0E9" mask="url(#mask-4)"></path>
                    </g>
                    <mask id="mask-6" fill="white">
                        <use xlink:href="#path-5"></use>
                    </mask>
                    <g id="Clip-15"></g>
                    <polygon id="Fill-14" fill="#00A0E9" mask="url(#mask-6)" points="10.4193548 10.5042419 13.7903226 10.5042419 13.7903226 9.5848871 10.4193548 9.5848871"></polygon>
                    <polygon id="Fill-16" fill="#00A0E9" mask="url(#mask-6)" points="15.3225806 10.5042419 17.1612903 10.5042419 17.1612903 9.5848871 15.3225806 9.5848871"></polygon>
                    <polygon id="Fill-17" fill="#00A0E9" mask="url(#mask-6)" points="10.4193548 12.3429516 14.0967742 12.3429516 14.0967742 11.4235968 10.4193548 11.4235968"></polygon>
                    <polygon id="Fill-18" fill="#00A0E9" mask="url(#mask-6)" points="15.3225806 12.3429516 17.1612903 12.3429516 17.1612903 11.4235968 15.3225806 11.4235968"></polygon>
                    <polygon id="Fill-19" fill="#00A0E9" mask="url(#mask-6)" points="10.4193548 14.1816613 13.483871 14.1816613 13.483871 13.2623065 10.4193548 13.2623065"></polygon>
                    <polygon id="Fill-20" fill="#00A0E9" mask="url(#mask-6)" points="10.4193548 16.020371 13.1774194 16.020371 13.1774194 15.1010161 10.4193548 15.1010161"></polygon>
                    <polygon id="Fill-21" fill="#00A0E9" mask="url(#mask-6)" points="14.4032258 14.1816613 17.1612903 14.1816613 17.1612903 13.2623065 14.4032258 13.2623065"></polygon>
                    <polygon id="Fill-22" fill="#00A0E9" mask="url(#mask-6)" points="16.2419355 16.020371 17.1612903 16.020371 17.1612903 15.1010161 16.2419355 15.1010161"></polygon>
                    <polygon id="Fill-23" fill="#00A0E9" mask="url(#mask-6)" points="10.4193548 8.66553226 13.1774194 8.66553226 13.1774194 7.74617742 10.4193548 7.74617742"></polygon>
                    <polygon id="Fill-24" fill="#00A0E9" mask="url(#mask-6)" points="16.2419355 8.66553226 17.1612903 8.66553226 17.1612903 7.74617742 16.2419355 7.74617742"></polygon>
                </g>
            </g>
        </g>
    </g>
</svg>