<?xml version="1.0" encoding="UTF-8" standalone="no"?>
<svg width="19px" height="19px" viewBox="0 0 19 19" version="1.1" xmlns="http://www.w3.org/2000/svg" xmlns:xlink="http://www.w3.org/1999/xlink">
    <!-- Generator: Sketch 42 (36781) - http://www.bohemiancoding.com/sketch -->
    <title>star copia</title>
    <desc>Created with Sketch.</desc>
    <defs></defs>
    <g id="Propuesta-final" stroke="none" stroke-width="1" fill="none" fill-rule="evenodd">
        <g id="Ítem-campaña" transform="translate(-838.000000, -523.000000)" fill="#009EE5">
            <g id="star-copia" transform="translate(838.000000, 523.000000)">
                <g id="Capa_1">
                    <path d="M18.9377917,6.85449831 C18.875516,6.66345884 18.7120425,6.52700207 18.5135388,6.49581196 L12.5973521,5.65367877 L9.93506813,0.292877212 C9.84554688,0.113534033 9.66261216,0.000469854895 9.46410853,0.000469854895 L9.46410853,0.000469854895 C9.2656049,0.000469854895 9.08267018,0.113534033 8.99314893,0.296775977 L6.36589497,5.67317259 L0.449708275,6.55429343 C0.251204642,6.58548354 0.0877310625,6.72194031 0.0254554131,6.91297979 C-0.0368202363,7.10401926 0.0176709569,7.31455256 0.161683396,7.45100932 L4.45481098,11.6187889 L3.46229282,17.5215187 C3.42726276,17.7203557 3.50899955,17.9191927 3.67247313,18.0361557 C3.76199438,18.1024347 3.87097676,18.1375235 3.97995915,18.1375235 C4.06558817,18.1375235 4.14732496,18.1180297 4.22516952,18.0751433 L9.50692304,15.2719314 L14.8042455,18.0439532 C14.88209,18.0829408 14.9638268,18.1024347 15.0455636,18.1024347 L15.0455636,18.1024347 C15.3335885,18.1024347 15.5710144,17.86461 15.5710144,17.5761014 C15.5710144,17.533215 15.5671222,17.4942274 15.5554455,17.4552397 L14.5317895,11.5875987 L18.7976715,7.39642662 C18.9494684,7.25607108 19.0000673,7.04553779 18.9377917,6.85449831 Z M13.6054392,11.0300754 C13.4808879,11.1509371 13.4263967,11.3263815 13.4575345,11.4979271 L14.3488548,16.6170053 L9.74824118,14.2114674 C9.59644428,14.1295934 9.41350956,14.1334921 9.25782044,14.2114674 L4.67277575,16.6442966 L5.53295816,11.517421 C5.56020376,11.3458753 5.50571256,11.1743297 5.38116126,11.053468 L1.66019121,7.43541426 L6.79404006,6.67125637 C6.9652981,6.64396502 7.11320276,6.53869837 7.1871551,6.38274778 L9.46800076,1.71592635 L11.7799842,6.37105148 C11.8578288,6.52700207 12.0057335,6.63226872 12.1769915,6.65956008 L17.3147326,7.39252785 L13.6054392,11.0300754 Z" id="Shape"></path>
                </g>
            </g>
        </g>
    </g>
</svg>