<?xml version="1.0" encoding="UTF-8" standalone="no"?>
<svg width="39px" height="39px" viewBox="0 0 39 39" version="1.1" xmlns="http://www.w3.org/2000/svg" xmlns:xlink="http://www.w3.org/1999/xlink">
    <!-- Generator: Sketch 42 (36781) - http://www.bohemiancoding.com/sketch -->
    <title>Group 6</title>
    <desc>Created with Sketch.</desc>
    <defs>
        <polygon id="path-1" points="10.3055738 10.4917705 10.3055738 0.000295081967 0.141377049 0.000295081967 0.141377049 10.4917705"></polygon>
        <polygon id="path-3" points="0 19.9924918 19.8137705 19.9924918 19.8137705 3.27868852e-05 0 3.27868852e-05"></polygon>
    </defs>
    <g id="Propuesta-final" stroke="none" stroke-width="1" fill="none" fill-rule="evenodd">
        <g id="Ãconos-extendidos" transform="translate(-828.000000, -518.000000)">
            <g id="Group-6" transform="translate(829.000000, 519.000000)">
                <circle id="Oval" stroke="#70CDF7" fill="#FFFFFF" cx="18.5" cy="18.5" r="18.5"></circle>
                <g id="Page-1" transform="translate(10.000000, 8.000000)">
                    <g id="Group-3" transform="translate(9.508197, 9.500689)">
                        <mask id="mask-2" fill="white">
                            <use xlink:href="#path-1"></use>
                        </mask>
                        <g id="Clip-2"></g>
                        <path d="M6.03547541,6.08095082 C4.90137705,7.25013115 3.06268852,7.25013115 1.92891803,6.08095082 C0.794819672,4.91045902 0.794163934,3.01406557 1.92859016,1.84422951 C3.06268852,0.674065574 4.90170492,0.674065574 6.03580328,1.84422951 C7.16957377,3.01406557 7.16957377,4.91045902 6.03547541,6.08095082 M10.0223607,8.78718033 L7.34334426,6.02390164 C7.69613115,5.40980328 7.88170492,4.71177049 7.88170492,3.9927541 C7.88170492,1.79177049 6.14563934,0.000295081967 4.01186885,0.000295081967 C1.87777049,0.000295081967 0.141377049,1.79177049 0.141377049,3.9927541 C0.141377049,6.1937377 1.87777049,7.98554098 4.01186885,7.98554098 C4.70465574,7.98554098 5.37809836,7.79537705 5.97154098,7.43537705 L8.65285246,10.2002951 C8.83514754,10.3881639 9.07842623,10.4917705 9.33744262,10.4917705 C9.59580328,10.4917705 9.83940984,10.3881639 10.0223607,10.2002951 C10.4000656,9.81045902 10.4000656,9.17636066 10.0223607,8.78718033" id="Fill-1" fill="#009EE5" mask="url(#mask-2)"></path>
                    </g>
                    <mask id="mask-4" fill="white">
                        <use xlink:href="#path-3"></use>
                    </mask>
                    <g id="Clip-5"></g>
                    <path d="M10.4918033,4.59019672 L12.7868852,4.59019672 L12.7868852,3.60659016 L10.4918033,3.60659016 L10.4918033,4.59019672 Z M2.95081967,4.59019672 L9.83606557,4.59019672 L9.83606557,3.60659016 L2.95081967,3.60659016 L2.95081967,4.59019672 Z M2.29508197,5.24593443 L13.442623,5.24593443 L13.442623,2.95085246 L2.29508197,2.95085246 L2.29508197,5.24593443 Z" id="Fill-4" fill="#009EE5" mask="url(#mask-4)"></path>
                    <path d="M10.4918033,7.86888525 L12.7868852,7.86888525 L12.7868852,6.88527869 L10.4918033,6.88527869 L10.4918033,7.86888525 Z M2.95081967,7.86888525 L9.83606557,7.86888525 L9.83606557,6.88527869 L2.95081967,6.88527869 L2.95081967,7.86888525 Z M13.442623,8.60462295 L13.442623,6.22954098 L2.29508197,6.22954098 L2.29508197,8.60462295 C2.29508197,8.60462295 13.1590164,8.60921311 13.442623,8.60462295 L13.442623,8.60462295 Z" id="Fill-6" fill="#009EE5" mask="url(#mask-4)"></path>
                    <path d="M10.517082,9.50819672 L2.29511475,9.50819672 L2.29511475,11.8032787 L8.93052459,11.8032787 C9.00659016,11.4754098 9.09708197,11.4754098 9.20232787,11.147541 L2.95085246,11.147541 L2.95085246,10.1639344 L9.83609836,10.1639344 L9.83609836,10.262623 C10.0413443,10.0167213 10.269541,9.83606557 10.517082,9.50819672" id="Fill-7" fill="#009EE5" mask="url(#mask-4)"></path>
                    <path d="M2.29508197,12.7870492 L2.29508197,15.0821311 L8.95409836,15.0821311 C8.87934426,14.7542623 8.81442623,14.7542623 8.76852459,14.4263934 L2.95081967,14.4263934 L2.95081967,13.4427869 L8.66786885,13.4427869 C8.66786885,13.4427869 8.66622951,13.4211475 8.66622951,13.41 C8.66622951,13.1988525 8.68327869,13.114918 8.70852459,12.7870492 L2.29508197,12.7870492 Z" id="Fill-8" fill="#009EE5" mask="url(#mask-4)"></path>
                    <path d="M14.7540984,18.3019016 L14.7540984,18.6887869 L0.983606557,18.6887869 L0.983606557,0.983540984 L14.7540984,0.983540984 L14.7540984,8.6864918 C15.0983607,8.77960656 15.4278689,8.90845902 15.7377049,9.07239344 L15.7377049,1.49140984 C15.7377049,0.712721311 15.1081967,-6.55737705e-05 14.3321311,-6.55737705e-05 L1.40688525,-6.55737705e-05 C0.629508197,-6.55737705e-05 0,0.712721311 0,1.49140984 L0,19.6723934 L15.7377049,19.6723934 L15.7377049,18.6150164 L15.2714754,18.1340328 C15.1022951,18.2012459 14.9291803,18.2550164 14.7540984,18.3019016" id="Fill-9" fill="#009EE5" mask="url(#mask-4)"></path>
                </g>
            </g>
        </g>
    </g>
</svg>