<?xml version="1.0" encoding="UTF-8" standalone="no"?>
<svg width="39px" height="39px" viewBox="0 0 39 39" version="1.1" xmlns="http://www.w3.org/2000/svg" xmlns:xlink="http://www.w3.org/1999/xlink">
    <!-- Generator: Sketch 42 (36781) - http://www.bohemiancoding.com/sketch -->
    <title>ico-cotiza</title>
    <desc>Created with Sketch.</desc>
    <defs></defs>
    <g id="Page-1" stroke="none" stroke-width="1" fill="none" fill-rule="evenodd">
        <g id="ico-cotiza" transform="translate(1.000000, 1.000000)">
            <g id="Page-1" fill-rule="nonzero" stroke="#70CDF7" fill="#FFFFFF">
                <g id="ico-cotiza">
                    <g id="Propuesta-final">
                        <g id="Ãconos-extendidos">
                            <g id="Group-4">
                                <circle id="Oval" cx="18.5" cy="18.5" r="18.5"></circle>
                            </g>
                        </g>
                    </g>
                </g>
            </g>
            <g id="Page-1" transform="translate(9.000000, 11.000000)" fill="#00A0E9">
                <polygon id="Fill-1" points="2.53333333 6.33333333 10.1333333 6.33333333 10.1333333 5.38333333 2.53333333 5.38333333"></polygon>
                <polygon id="Fill-2" points="2.53333333 8.23333333 10.1333333 8.23333333 10.1333333 7.28333333 2.53333333 7.28333333"></polygon>
                <polygon id="Fill-3" points="12.6666667 8.23333333 16.4666667 8.23333333 16.4666667 7.28333333 12.6666667 7.28333333"></polygon>
                <polygon id="Fill-4" points="13.6166667 6.33333333 16.4666667 6.33333333 16.4666667 5.38333333 13.6166667 5.38333333"></polygon>
                <polygon id="Fill-5" points="13.6166667 10.1333333 16.4666667 10.1333333 16.4666667 9.18333333 13.6166667 9.18333333"></polygon>
                <polygon id="Fill-6" points="12.6666667 12.0333333 16.4666667 12.0333333 16.4666667 11.0833333 12.6666667 11.0833333"></polygon>
                <polygon id="Fill-7" points="2.53333333 10.1333333 10.1333333 10.1333333 10.1333333 9.18333333 2.53333333 9.18333333"></polygon>
                <polygon id="Fill-8" points="2.53333333 12.0333333 10.1333333 12.0333333 10.1333333 11.0833333 2.53333333 11.0833333"></polygon>
                <path d="M0.95,14.25 L18.05,14.25 L18.05,3.8 L0.95,3.8 L0.95,14.25 Z M17.55125,0 L1.26793333,0 C0.517433333,0 0,0.628266667 0,1.37813333 L0,15.2 L19,15.2 L19,1.37813333 C19,0.628266667 18.3011167,0 17.55125,0 L17.55125,0 Z" id="Fill-9"></path>
            </g>
        </g>
    </g>
</svg>