<?xml version="1.0" encoding="UTF-8" standalone="no"?>
<svg width="11px" height="11px" viewBox="0 0 11 11" version="1.1" xmlns="http://www.w3.org/2000/svg" xmlns:xlink="http://www.w3.org/1999/xlink">
    <!-- Generator: Sketch 42 (36781) - http://www.bohemiancoding.com/sketch -->
    <title>Shape</title>
    <desc>Created with Sketch.</desc>
    <defs></defs>
    <g id="Home" stroke="none" stroke-width="1" fill="none" fill-rule="evenodd">
        <g id="Aviso-1" transform="translate(-1167.000000, -218.000000)" fill="#87C3E1">
            <g id="forbidden-mark" transform="translate(1167.000000, 218.000000)">
                <path d="M9.21089714,0.0658114286 C9.12314857,-0.0219371429 8.97952,-0.0219371429 8.89177143,0.0658114286 L5.63564571,3.32193714 C5.54789714,3.40968571 5.40426857,3.40968571 5.31652,3.32193714 L2.06045714,0.0658114286 C1.97270857,-0.0219371429 1.82908,-0.0219371429 1.74133143,0.0658114286 L0.0658114286,1.74126857 C-0.0219371429,1.82901714 -0.0219371429,1.97264571 0.0658114286,2.06039429 L3.32193714,5.31652 C3.40968571,5.40426857 3.40968571,5.54789714 3.32193714,5.63564571 L0.0658114286,8.89177143 C-0.0219371429,8.97952 -0.0219371429,9.12314857 0.0658114286,9.21089714 L1.74126857,10.8863543 C1.82901714,10.9741029 1.97264571,10.9741029 2.06039429,10.8863543 L5.31652,7.63022857 C5.40426857,7.54248 5.54789714,7.54248 5.63564571,7.63022857 L8.89170857,10.8862914 C8.97945714,10.97404 9.12308571,10.97404 9.21083429,10.8862914 L10.8862914,9.21083429 C10.97404,9.12308571 10.97404,8.97945714 10.8862914,8.89170857 L7.63022857,5.63564571 C7.54248,5.54789714 7.54248,5.40426857 7.63022857,5.31652 L10.8862914,2.06045714 C10.97404,1.97270857 10.97404,1.82908 10.8862914,1.74133143 L9.21089714,0.0658114286 Z" id="Shape"></path>
            </g>
        </g>
    </g>
</svg>