<?xml version="1.0" encoding="UTF-8"?>
<svg width="145px" height="40px" viewBox="0 0 145 40" version="1.1" xmlns="http://www.w3.org/2000/svg" xmlns:xlink="http://www.w3.org/1999/xlink">
    <!-- Generator: Sketch 42 (36781) - http://www.bohemiancoding.com/sketch -->
    <title>Group</title>
    <desc>Created with Sketch.</desc>
    <defs></defs>
    <g id="Page-1" stroke="none" stroke-width="1" fill="none" fill-rule="evenodd">
        <g id="Group" transform="translate(0.000000, -1.000000)">
            <path d="M0.082,40.804 C0.915291674,38.002269 2.33236804,35.4087262 4.24,33.194 C6.01602109,30.8904459 8.18913116,28.922557 10.657,27.383 C10.557,27.242 10.477,27.116 10.382,26.991 C8.47248796,24.4318729 7.08885605,21.5198222 6.311,18.423 C4.80341775,12.2023479 7.62451325,5.73917718 13.211,2.615 C15.5434959,1.35074365 18.1978948,0.804833064 20.84,1.046 C26.8095327,1.56531143 31.7658557,5.86924233 33.117,11.707 C33.6764269,14.2985801 33.5383999,16.9921771 32.717,19.513 C31.8669973,22.333988 30.493773,24.969846 28.669,27.283 L28.457,27.565 C28.441,27.581 28.449,27.612 28.441,27.628 C33.1030826,30.8535897 36.6356457,35.4606117 38.541,40.8 C37.6,40.8 36.784,40.808 35.96,40.784 C35.86,40.784 35.732,40.604 35.678,40.478 C34.7787232,38.5177684 33.6909363,36.6496418 32.43,34.9 C30.7471702,32.4738682 28.5473898,30.4509991 25.989,28.977 C25.534,28.726 25.048,28.53 24.546,28.294 C25.236,27.408 25.911,26.537 26.594,25.658 C28.4188438,23.3947515 29.7592226,20.7807064 30.532,17.978 C30.9689756,16.3871415 31.0677648,14.7223731 30.822,13.091 C30.767,12.777 30.657,12.62 30.328,12.565 C27.1666667,12.0156667 24.0076667,11.456 20.851,10.886 C18.2936667,10.4306667 15.7413333,9.97033333 13.194,9.505 C12.9151291,9.44111241 12.6224079,9.51059674 12.402,9.693 C11.288,10.564 10.15,11.393 9.036,12.266 C8.84854389,12.4197821 8.7162159,12.6303837 8.659,12.866 C8.21241999,15.3216187 8.50188762,17.8544604 9.491,20.146 C10.2705099,22.1315088 11.3288005,23.9958916 12.634,25.683 C13.246,26.491 13.858,27.307 14.434,28.083 C13.453,28.656 12.465,29.158 11.547,29.778 C8.28069477,32.0512056 5.61586963,35.0842673 3.782,38.616 C3.445,39.236 3.139,39.871 2.848,40.516 C2.78370096,40.7163532 2.58575082,40.8424361 2.377,40.816 C1.651,40.797 0.89,40.804 0.082,40.804 Z" id="path" fill="#094FA4" fill-rule="nonzero"></path>
            <rect id="Rectangle-path" x="42" y="11" width="103" height="20" rx="4"></rect>
            <rect id="Rectangle-path" stroke="#094FA4" x="42.5" y="11.5" width="102" height="19" rx="3.5"></rect>
            <text id="Acceso-Cliente" fill="#094FA4" font-family="Helvetica" font-size="13" font-weight="normal">
                <tspan x="51" y="25">Acceso Cliente</tspan>
            </text>
        </g>
    </g>
</svg>