<?xml version="1.0" encoding="UTF-8"?>
<svg width="92px" height="29px" viewBox="0 0 92 29" version="1.1" xmlns="http://www.w3.org/2000/svg" xmlns:xlink="http://www.w3.org/1999/xlink">
    <!-- Generator: Sketch 43.2 (39069) - http://www.bohemiancoding.com/sketch -->
    <title>BBVA</title>
    <desc>Created with Sketch.</desc>
    <defs>
        <polygon id="path-1" points="24.9689158 0.180721651 0.27199575 0.180721651 0.27199575 28.1729945 24.9689158 28.1729945 24.9689158 0.180721651"></polygon>
    </defs>
    <g id="Page-1" stroke="none" stroke-width="1" fill="none" fill-rule="evenodd">
        <g id="Personal" transform="translate(-203.000000, -32.000000)">
            <g id="Group-14">
                <g id="Group">
                    <g id="BBVA" transform="translate(203.000000, 32.000000)">
                        <g id="Group-3" transform="translate(23.818006, 0.109944)" fill="#FDFEFE">
                            <path d="M10.6338576,12.502132 L12.9965451,9.01728399 C13.5943476,8.14360232 13.7207889,7.59417363 13.7207889,6.9819863 C13.7207889,5.27065106 12.1984948,3.83446598 10.445666,3.83446598 L6.81268491,3.83446598 L6.81268491,24.4233689 L8.82486536,24.4233689 C12.193496,24.4233689 14.7490798,22.6269027 14.7490798,18.4162626 C14.7490798,14.9444893 13.1003445,13.0910754 10.6338576,12.502132 M12.0482355,28.1833671 L0.148053903,28.1833671 L0.148053903,0.180518266 L12.4822525,0.180518266 C18.2626768,0.180518266 20.2783859,4.83715154 17.3505354,9.13292261 L15.9667386,11.1621188 C25.6668422,16.1395184 22.5125737,28.1833671 12.0482355,28.1833671" id="Fill-1"></path>
                        </g>
                        <g id="Group-6" transform="translate(0.000000, 0.109944)" fill="#FDFEFE">
                            <path d="M10.4855391,12.502132 L12.8482265,9.01728399 C13.4460291,8.14360232 13.5727644,7.59417363 13.5727644,6.9819863 C13.5727644,5.27065106 12.0501763,3.83446598 10.2976415,3.83446598 L6.66466041,3.83446598 L6.66466041,24.4233689 L8.67654682,24.4233689 C12.0451774,24.4233689 14.6007613,22.6269027 14.6007613,18.4162626 C14.6007613,14.9444893 12.952026,13.0910754 10.4855391,12.502132 M2.94049468e-05,28.1833671 L2.94049468e-05,0.180518266 L12.333934,0.180518266 C18.1146523,0.180518266 20.1303614,4.83715154 17.2025109,9.13292261 L15.8187141,11.1621188 C25.5182296,16.1395184 22.3645492,28.1833671 11.899917,28.1833671 L2.94049468e-05,28.1833671 Z" id="Fill-4"></path>
                        </g>
                        <g id="Group-9" transform="translate(43.519320, 0.109944)">
                            <mask id="mask-2" fill="white">
                                <use xlink:href="#path-1"></use>
                            </mask>
                            <g id="Clip-8"></g>
                            <path d="M20.4973057,0.180605431 L24.9689158,0.180605431 L16.3332713,28.1729945 L9.53543588,28.1689268 L0.27199575,0.184382572 L5.27612946,0.180605431 C7.2103868,0.180605431 7.71791617,0.673667555 8.72885822,3.84443182 L14.0908501,21.442711 L20.4973057,0.180605431 Z" id="Fill-7" fill="#FDFEFE" mask="url(#mask-2)"></path>
                        </g>
                        <path d="M72.6890853,18.1447152 L76.5576,5.37623667 L80.4790436,18.1447152 L72.6890853,18.1447152 Z M82.687061,3.1506292 C81.8881286,0.814903559 81.3506062,0.29946914 79.25668,0.29946914 L73.8432294,0.29540145 L65.1717108,28.2863378 L69.5909802,28.2863378 L71.4487847,22.244075 L81.7561004,22.244075 L83.6233144,28.2840134 L91.2809505,28.2840134 L82.687061,3.1506292 Z" id="Fill-10" fill="#FDFEFE"></path>
                    </g>
                </g>
            </g>
        </g>
    </g>
</svg>