<?xml version="1.0" encoding="UTF-8" standalone="no"?>
<svg width="30px" height="30px" viewBox="0 0 30 30" version="1.1" xmlns="http://www.w3.org/2000/svg" xmlns:xlink="http://www.w3.org/1999/xlink">
    <!-- Generator: Sketch 42 (36781) - http://www.bohemiancoding.com/sketch -->
    <title>circular-clock</title>
    <desc>Created with Sketch.</desc>
    <defs></defs>
    <g id="Page-1" stroke="none" stroke-width="1" fill="none" fill-rule="evenodd">
        <g id="iPad-Pro-Portrait" fill="#FFFFFF">
            <path d="M21.7733156,13.5466312 L16.4533688,13.5466312 L16.4533688,7.25777186 C16.4533688,6.45457844 15.8001693,5.80742712 14.9969759,5.80742712 C14.198621,5.80742712 13.5466312,6.45457844 13.5466312,7.25777186 L13.5466312,16.4533688 L21.7733156,16.4533688 C22.576509,16.4533688 23.2236603,15.801379 23.2236603,14.9969759 C23.2236603,14.198621 22.576509,13.5466312 21.7733156,13.5466312 Z M14.9969759,0 C6.7146486,0 0,6.7146486 0,14.9969759 C0,23.2805129 6.7146486,30 14.9969759,30 C23.2805129,30 30,23.2805129 30,14.9969759 C30,6.7146486 23.2805129,0 14.9969759,0 Z M14.9969759,27.0932624 C8.33071247,27.0932624 2.90068949,21.6692875 2.90068949,14.9969759 C2.90068949,8.33071247 8.33071247,2.90068949 14.9969759,2.90068949 C21.6692875,2.90068949 27.0932624,8.33071247 27.0932624,14.9969759 C27.0932624,21.6692875 21.6692875,27.0932624 14.9969759,27.0932624 Z" id="circular-clock"></path>
        </g>
    </g>
</svg>