<?xml version="1.0" encoding="UTF-8" standalone="no"?>
<svg width="228px" height="68px" viewBox="0 0 228 68" version="1.1" xmlns="http://www.w3.org/2000/svg" xmlns:xlink="http://www.w3.org/1999/xlink">
    <!-- Generator: Sketch 42 (36781) - http://www.bohemiancoding.com/sketch -->
    <title>Group 11</title>
    <desc>Created with Sketch.</desc>
    <defs></defs>
    <g id="Page-1" stroke="none" stroke-width="1" fill="none" fill-rule="evenodd">
        <g id="Tooltip-ID-de-operación" transform="translate(-440.000000, -686.000000)">
            <g id="Group-11" transform="translate(440.000000, 686.000000)">
                <g id="Group-9" transform="translate(0.000000, 1.000000)" fill="#C1C1C1">
                    <path d="M13.2631579,4.99370633 C13.2631579,2.23575848 15.5027036,0 18.2537589,0 L108.219925,0 C110.976158,0 113.210526,2.23916616 113.210526,4.99370633 L113.210526,55.4006599 C113.210526,58.1586077 110.970981,60.3943662 108.219925,60.3943662 L18.2537589,60.3943662 C15.4975261,60.3943662 13.2631579,58.1552 13.2631579,55.4006599 L13.2631579,4.99370633 Z M63.4736842,3.3028169 C63.9969013,3.3028169 64.4210526,2.88032505 64.4210526,2.35915493 C64.4210526,1.83798481 63.9969013,1.41549296 63.4736842,1.41549296 C62.9504671,1.41549296 62.5263158,1.83798481 62.5263158,2.35915493 C62.5263158,2.88032505 62.9504671,3.3028169 63.4736842,3.3028169 Z M18,4.71830986 L18,56.1478873 L108.947368,56.1478873 L108.947368,4.71830986 L18,4.71830986 Z M0,61.8098592 L126,61.8098592 L126,64.4049296 C126,65.8381474 124.833107,67 123.397233,67 L2.60276691,67 C1.16529844,67 0,65.8481395 0,64.4049296 L0,61.8098592 Z M52.5789474,61.8098592 L52.5789474,62.9894366 C52.5789474,63.6454411 53.105636,64.1690141 53.7553394,64.1690141 L72.7183448,64.1690141 C73.3678268,64.1690141 73.8947368,63.6408993 73.8947368,62.9894366 L73.8947368,61.8098592 L52.5789474,61.8098592 Z" id="Combined-Shape"></path>
                </g>
                <path d="M194,8.00042472 C194,3.58191216 197.58747,0 202.001043,0 L219.226229,0 C223.645084,0 227.227273,3.58406387 227.227273,8.00042472 L227.227273,59.9995753 C227.227273,64.4180878 223.639802,68 219.226229,68 L202.001043,68 C197.582189,68 194,64.4159361 194,59.9995753 L194,8.00042472 Z M197.090909,9.27272727 L197.090909,59.5 L224.136364,59.5 L224.136364,9.27272727 L197.090909,9.27272727 Z M211,65.6818182 C212.280296,65.6818182 213.318182,64.6439328 213.318182,63.3636364 C213.318182,62.0833399 212.280296,61.0454545 211,61.0454545 C209.719704,61.0454545 208.681818,62.0833399 208.681818,63.3636364 C208.681818,64.6439328 209.719704,65.6818182 211,65.6818182 Z M209.454545,6.18181818 L209.454545,7.72727273 L215.636364,7.72727273 L215.636364,6.18181818 L209.454545,6.18181818 Z M206.363636,6.18181818 L206.363636,7.72727273 L207.909091,7.72727273 L207.909091,6.18181818 L206.363636,6.18181818 Z" id="Combined-Shape" fill="#C1C1C1"></path>
                <g id="right-arrow" transform="translate(140.000000, 23.000000)" fill="#009EE5">
                    <g id="Capa_1">
                        <path d="M21.205,1.007 C20.776,0.563 20.062,0.563 19.618,1.007 C19.189,1.436 19.189,2.15 19.618,2.578 L27.665,10.625 L1.111,10.625 C0.492,10.626 0,11.118 0,11.737 C0,12.356 0.492,12.864 1.111,12.864 L27.665,12.864 L19.618,20.896 C19.189,21.34 19.189,22.055 19.618,22.483 C20.062,22.927 20.777,22.927 21.205,22.483 L31.157,12.531 C31.601,12.102 31.601,11.388 31.157,10.96 L21.205,1.007 Z" id="Shape"></path>
                    </g>
                </g>
            </g>
        </g>
    </g>
</svg>