<?xml version="1.0" encoding="UTF-8" standalone="no"?>
<svg width="101px" height="27px" viewBox="0 0 101 27" version="1.1" xmlns="http://www.w3.org/2000/svg" xmlns:xlink="http://www.w3.org/1999/xlink">
    <!-- Generator: Sketch 42 (36781) - http://www.bohemiancoding.com/sketch -->
    <title>Group 7</title>
    <desc>Created with Sketch.</desc>
    <defs></defs>
    <g id="Page-1" stroke="none" stroke-width="1" fill="none" fill-rule="evenodd">
        <g id="Tooltip-ID-de-operación" transform="translate(-567.000000, -580.000000)" fill="#FFFFFF">
            <g id="Group-8" transform="translate(441.000000, 580.000000)">
                <g id="Group-7" transform="translate(126.000000, 0.000000)">
                    <g id="Group-4">
                        <path d="M15.9340894,9.33764937 L15.3600558,9.33764937 L15.3600558,6.61683848 C15.3696264,4.25606961 14.1156638,2.07052276 12.0727582,0.887366898 C10.0298526,-0.295788966 7.51012297,-0.295788966 5.46721733,0.887366898 C3.42431169,2.07052276 2.17034913,4.25606961 2.17991975,6.61683848 L2.17991975,9.33829922 L1.60588616,9.33829922 C1.17985613,9.33832791 0.771294501,9.50763229 0.470116879,9.8089521 C0.168939257,10.1102719 -0.000172258035,10.5189134 1.31669277e-07,10.9449434 L1.31669277e-07,25.27293 C-0.000172264658,25.6990075 0.168965526,26.1076929 0.470186887,26.4090362 C0.771408249,26.7103794 1.18002525,26.8796825 1.60610278,26.8796825 L15.9347392,26.8796825 C16.3608167,26.8796825 16.7694337,26.7103794 17.0706551,26.4090362 C17.3718765,26.1076929 17.5410143,25.6990075 17.5408419,25.27293 L17.5408419,10.9449434 C17.540928,10.5187299 17.3716906,10.1099404 17.070363,9.80851118 C16.7690353,9.50708196 16.3603028,9.33770681 15.9340894,9.33764937 Z M3.79577013,6.61683848 C3.79577013,3.8698633 6.0226335,1.64299993 8.76960868,1.64299993 C11.5165839,1.64299993 13.7434472,3.8698633 13.7434472,6.61683848 L13.7434472,9.33829922 L3.79577013,9.33829922 L3.79577013,6.61683848 Z M16.1708511,25.2723884 C16.1706121,25.4029616 16.0646627,25.5086687 15.9340894,25.5086087 L1.60556124,25.5086087 C1.47498786,25.5086687 1.36903848,25.4029616 1.36879946,25.2723884 L1.36879946,10.9444019 C1.36903789,10.8137408 1.47490021,10.7078785 1.60556124,10.7076401 L15.9340894,10.7076401 C16.0647504,10.7078785 16.1706127,10.8137408 16.1708511,10.9444019 L16.1708511,25.2723884 Z" id="path"></path>
                        <g id="_" transform="translate(3.000000, 17.000000)">
                            <path d="M1.33539597,2.28700641 L1.33539597,3.39203587 L2.01840413,3.39203587 L2.01840413,2.28700641 L2.92908167,2.81453303 L3.2678093,2.28700641 L2.32381428,1.70950358 L3.2678093,1.13200074 L2.92908167,0.604474119 L2.01840413,1.13200074 L2.01840413,0.0269712861 L1.33539597,0.0269712861 L1.33539597,1.13200074 L0.424718429,0.604474119 L0.0859908064,1.13200074 L1.02998582,1.70950358 L0.0859908064,2.28700641 L0.424718429,2.81453303 L1.33539597,2.28700641 Z M5.33904542,2.28700641 L5.33904542,3.39203587 L6.02205357,3.39203587 L6.02205357,2.28700641 L6.93273112,2.81453303 L7.27145874,2.28700641 L6.32746373,1.70950358 L7.27145874,1.13200074 L6.93273112,0.604474119 L6.02205357,1.13200074 L6.02205357,0.0269712861 L5.33904542,0.0269712861 L5.33904542,1.13200074 L4.42836787,0.604474119 L4.08964025,1.13200074 L5.03363526,1.70950358 L4.08964025,2.28700641 L4.42836787,2.81453303 L5.33904542,2.28700641 Z M9.34269486,2.28700641 L9.34269486,3.39203587 L10.025703,3.39203587 L10.025703,2.28700641 L10.9363806,2.81453303 L11.2751082,2.28700641 L10.3311132,1.70950358 L11.2751082,1.13200074 L10.9363806,0.604474119 L10.025703,1.13200074 L10.025703,0.0269712861 L9.34269486,0.0269712861 L9.34269486,1.13200074 L8.43201732,0.604474119 L8.09328969,1.13200074 L9.03728471,1.70950358 L8.09328969,2.28700641 L8.43201732,2.81453303 L9.34269486,2.28700641 Z" id="***"></path>
                        </g>
                    </g>
                    <g id="Refinancia_tu_C" transform="translate(66.000000, 8.000000)">
                        <path d="M0.0509048651,12.8886786 L2.03944385,12.8886786 L2.03944385,7.91733114 L3.77020926,7.91733114 C6.78984253,7.91733114 8.55743274,6.70211287 8.55743274,3.92184077 C8.55743274,1.14156868 6.77143013,0 3.80703406,0 L0.0509048651,0 L0.0509048651,12.8886786 Z M2.03944385,1.52822903 L3.77020926,1.52822903 C5.68509865,1.52822903 6.53206896,2.22790016 6.53206896,3.95866557 C6.53206896,5.68943098 5.68509865,6.4627517 3.77020926,6.4627517 L2.03944385,6.4627517 L2.03944385,1.52822903 Z M16.6036507,12.8886786 L17.3401466,12.8886786 L17.3401466,6.05767894 C17.3401466,3.94025317 16.0328663,3.11169526 13.749729,3.11169526 C12.2030875,3.11169526 11.1351685,3.51676802 10.2881982,3.94025317 L10.2881982,5.33959542 L10.8773949,5.33959542 C11.485004,4.89769787 12.3687991,4.54786231 13.5103678,4.54786231 C14.7808233,4.54786231 15.4436696,5.04499705 15.4436696,6.18656573 L15.4436696,7.45702119 C14.7808233,7.29130961 14.1732141,7.19924762 13.3446562,7.19924762 C11.1719933,7.19924762 9.60693943,8.15669231 9.60693943,10.1268189 C9.60693943,12.0048835 10.8773949,12.999153 12.6265727,12.999153 C13.9154406,12.999153 14.7808233,12.5940802 15.4989068,11.8207595 C15.6093812,12.6861422 15.8671547,12.8886786 16.6036507,12.8886786 Z M13.2341818,11.7102851 C12.2030875,11.7102851 11.4481792,11.2131504 11.4481792,10.0163445 C11.4481792,8.85636344 12.3687991,8.37764109 13.657667,8.37764109 C14.3205133,8.37764109 14.90971,8.45129068 15.4436696,8.56176507 L15.4436696,10.6055412 C14.8912977,11.2315628 14.2468637,11.7102851 13.2341818,11.7102851 Z M22.3483188,12.9807406 C24.8708174,12.9807406 26.0307984,11.8023471 26.0307984,9.97951971 C26.0307984,8.13827992 25.0365289,7.43860879 22.9191032,7.12559803 C21.4092865,6.90464925 20.875327,6.57322609 20.875327,5.81831777 C20.875327,5.00817226 21.4461113,4.5846871 22.679742,4.5846871 C23.7292487,4.5846871 24.4289198,4.89769787 24.8892298,5.26594583 L25.4968389,5.26594583 L25.4968389,3.82977878 C24.852405,3.46153082 24.0238471,3.14852006 22.6613296,3.14852006 C20.5439038,3.14852006 19.1997988,4.14278955 19.1997988,5.96561695 C19.1997988,7.75161956 20.2861303,8.46970308 22.2378445,8.74588905 C23.8028983,8.98525022 24.2632082,9.33508579 24.2632082,10.1452313 C24.2632082,11.0658512 23.6003619,11.5445735 22.2562569,11.5445735 C21.059451,11.5445735 20.2493055,11.102676 19.8074079,10.6791908 L19.1997988,10.6791908 L19.1997988,12.1337703 C19.8442327,12.5572554 20.7648526,12.9807406 22.3483188,12.9807406 Z M30.5970731,12.9807406 C33.1195717,12.9807406 34.2795527,11.8023471 34.2795527,9.97951971 C34.2795527,8.13827992 33.2852833,7.43860879 31.1678575,7.12559803 C29.6580408,6.90464925 29.1240813,6.57322609 29.1240813,5.81831777 C29.1240813,5.00817226 29.6948656,4.5846871 30.9284963,4.5846871 C31.978003,4.5846871 32.6776741,4.89769787 33.1379841,5.26594583 L33.7455932,5.26594583 L33.7455932,3.82977878 C33.1011593,3.46153082 32.2726014,3.14852006 30.9100839,3.14852006 C28.7926581,3.14852006 27.4485531,4.14278955 27.4485531,5.96561695 C27.4485531,7.75161956 28.5348846,8.46970308 30.4865988,8.74588905 C32.0516526,8.98525022 32.5119625,9.33508579 32.5119625,10.1452313 C32.5119625,11.0658512 31.8491162,11.5445735 30.5050112,11.5445735 C29.3082053,11.5445735 28.4980598,11.102676 28.0561622,10.6791908 L27.4485531,10.6791908 L27.4485531,12.1337703 C28.092987,12.5572554 29.0136069,12.9807406 30.5970731,12.9807406 Z" id="Pass"></path>
                    </g>
                    <g id="group-69" transform="translate(23.000000, 8.000000)">
                        <path d="M5.81777623,13.1031289 L0,13.1031289 L0,0 L5.88384424,0 C5.92489306,0.0319509259 5.97503977,0.0181957816 6.02052922,0.0204702542 C6.0385633,0.0193529738 6.05664925,0.0193529738 6.07468333,0.0204702542 C6.2416522,0.0318867084 6.40764357,0.0547209269 6.57149315,0.0888127433 C6.89832068,0.151859914 7.21211787,0.269776467 7.49958632,0.437565223 C8.14222734,0.800106967 8.55422511,1.46671102 8.5911166,2.20363912 C8.61038198,2.50230092 8.57877578,2.8020654 8.4976466,3.09014193 C8.39144607,3.47323925 8.22365289,3.83651679 8.00083678,4.16575089 C7.8049072,4.45969941 7.60659485,4.75364793 7.41066527,5.04759645 C7.39929291,5.06579223 7.38564607,5.08409632 7.3741654,5.10175056 C7.3491462,5.14279938 7.3491462,5.14734832 7.38781223,5.17009305 C7.41055696,5.18373989 7.43341,5.19511225 7.45388025,5.20659292 C7.66214616,5.31991379 7.86388121,5.44484561 8.05813183,5.58079783 C8.54874299,5.9185171 8.97405312,6.34239608 9.31342414,6.83186612 C9.84303148,7.5838129 10.0943905,8.49665511 10.0243593,9.41371756 C9.9969722,9.79236735 9.91096196,10.1644695 9.76940176,10.5167285 C9.39937245,11.4458595 8.68977052,12.1994486 7.78454526,12.6246231 C7.33126325,12.8444002 6.84589325,12.99064 6.34664528,13.057856 C6.26428293,13.0754199 6.18022913,13.0838107 6.09602005,13.0828752 C6.03450098,13.0828752 5.97298191,13.0851497 5.91189607,13.0851497 C5.87937826,13.0791339 5.84578702,13.0855507 5.81777623,13.1031289 Z M4.88123502,5.76308057 C4.90397974,5.72885517 4.92228383,5.69928703 4.94275409,5.66961058 C5.28688542,5.15464108 5.6317388,4.63963547 5.97731424,4.12459377 C6.05194358,4.01666487 6.1167543,3.90226742 6.17096934,3.78277301 C6.34382421,3.41407829 6.34477578,2.9878141 6.17356874,2.6183513 C5.9262193,2.07699506 5.38780505,1.72780703 4.79263889,1.7227506 C4.27080987,1.72502508 3.75125532,1.7227506 3.2294263,1.7227506 C3.09274132,1.7227506 3.10866263,1.71137824 3.10866263,1.84806322 L3.10866263,11.2070851 C3.10866263,11.243585 3.10866263,11.2799766 3.1109371,11.3164764 C3.1107586,11.3256071 3.11430713,11.3344166 3.12076474,11.3408742 C3.12722235,11.3473318 3.13603181,11.3508803 3.1451625,11.3507018 C3.17483896,11.3529763 3.2044071,11.3529763 3.23180908,11.3529763 L3.95325016,11.3529763 C4.10992678,11.3548763 4.2665986,11.3488032 4.422658,11.3347805 C4.69531768,11.3103671 4.96352503,11.2498347 5.22023976,11.1547722 C5.8230533,10.9386267 6.30385496,10.4737637 6.54019208,9.87857645 C6.66244578,9.57352608 6.73700486,9.25147177 6.76124916,8.92373115 C6.78251179,8.67658975 6.78327255,8.42811202 6.76352363,8.18084505 C6.74254945,7.87503526 6.68204308,7.57323154 6.58351537,7.28296987 C6.41775773,6.78276943 6.0803086,6.35738018 5.63094454,6.0821566 C5.42106061,5.95666362 5.19482709,5.86080504 4.9586754,5.79730597 C4.92928739,5.7968774 4.90133543,5.78452381 4.88123502,5.76308057 Z" id="path-2"></path>
                        <path d="M34.1483915,2.32871358e-15 L36.269933,2.32871358e-15 C36.3016673,0.0250191996 36.3401167,0.0136468362 36.374667,0.0136468362 C36.5632316,0.0159213089 36.7528793,0.00909789078 36.9418772,0.0227447269 C37.0836427,0.0299033958 37.2242521,0.0520494702 37.3613549,0.0888127433 C37.5527487,0.141163314 37.7207427,0.256850138 37.8379111,0.416986661 C37.8875959,0.484719297 37.9317133,0.556364738 37.9698305,0.631220327 C38.0292034,0.747816357 38.0811152,0.868063641 38.1252528,0.991236862 C38.2227302,1.27381302 38.3211824,1.55638917 38.416277,1.83896533 C38.9776025,3.49564791 39.5366534,5.15157234 40.0934299,6.80673862 C40.6681855,8.50674449 41.2424718,10.2074724 41.8162888,11.9089224 C41.9328284,12.2530176 42.0491515,12.5993873 42.1648246,12.9434826 C42.1897182,12.992754 42.2001571,13.0480653 42.1949343,13.1030206 L38.6717761,13.1030206 C38.6672272,13.0825503 38.6624616,13.0596973 38.6562881,13.039227 C38.384651,12.1504497 38.1126169,11.2623223 37.8401856,10.3748447 C37.8335788,10.3543745 37.8262138,10.3337959 37.819932,10.3133257 C37.8147819,10.2915488 37.7943316,10.2769283 37.7720597,10.2791003 L33.1461072,10.2791003 C33.043431,10.2791003 33.0551283,10.2677279 33.023069,10.3748447 C32.9247252,10.6961952 32.8268145,11.0151629 32.7287956,11.3365134 C32.5510618,11.9244105 32.3713785,12.5146903 32.1928865,13.1025873 L30.1580999,13.1025873 C30.1563117,13.0552402 30.1665594,13.0082129 30.1878847,12.9659024 C30.7162844,11.2317433 31.2463809,9.49834238 31.7781743,7.76569963 C32.416182,5.68062191 33.054334,3.59626625 33.6926305,1.51263265 C33.8364638,1.04329701 33.9800083,0.573094913 34.123264,0.102026347 C34.1468009,0.0736493865 34.1560581,0.0360619004 34.1483915,0 L34.1483915,2.32871358e-15 Z M37.2160053,8.34948095 C37.2147326,8.29896632 37.2028116,8.24928921 37.1810217,8.20369808 C36.6595537,6.4786369 36.1363167,4.75433388 35.6113107,3.03078902 C35.5540156,2.84168286 35.4974787,2.65474287 35.4380175,2.46758626 C35.432927,2.45621389 35.432927,2.43563533 35.41289,2.44029258 C35.4056333,2.44256706 35.3988099,2.45393942 35.3943693,2.46303731 C35.3860296,2.49033098 35.3785563,2.51719142 35.3695667,2.54730111 C35.1394478,3.31527862 34.910051,4.08246187 34.6813763,4.84885086 C34.3409635,5.98142995 34.0047748,7.11628352 33.664362,8.24886261 C33.6286203,8.37190075 33.6328443,8.36052839 33.7472178,8.36052839 L37.1149537,8.36052839 C37.1490235,8.36577453 37.1838739,8.36196453 37.2160053,8.34948095 L37.2160053,8.34948095 Z" id="path-3"></path>
                        <path d="M11.1112323,0 L17.1934973,0 C17.19588,0.0250191996 17.2163503,0.0227447269 17.2346544,0.0250191996 C17.4084032,0.04401935 17.5810323,0.0721461441 17.7518261,0.109282998 C18.1446348,0.194957776 18.5140303,0.365277396 18.8342585,0.608367292 C19.3078128,0.969253593 19.607827,1.51260427 19.6609752,2.10562017 C19.6975667,2.47358355 19.6580072,2.84514028 19.5447605,3.19715045 C19.4290373,3.56220489 19.2592754,3.90786204 19.0411272,4.22261271 C18.8564617,4.49836545 18.6721211,4.77184371 18.4850728,5.04748814 C18.4691515,5.07250734 18.4532302,5.09536038 18.4394751,5.12037958 C18.4352745,5.12654528 18.4341297,5.13429544 18.4363682,5.14141231 C18.4386067,5.14852918 18.443982,5.15422852 18.4509557,5.15687945 C18.4691515,5.16825181 18.4896218,5.1773497 18.5079259,5.18883037 C18.6400619,5.26627075 18.7744724,5.33927049 18.9043339,5.42125982 C19.4166193,5.73901545 19.8687183,6.14480455 20.2397743,6.61990693 C20.7337953,7.24448661 21.0334357,8.00044209 21.1014746,8.79386959 C21.1481475,9.32570633 21.0796583,9.86135546 20.9006711,10.3643388 C20.589153,11.2544224 19.9658669,12.0015962 19.1460779,12.4676845 C18.54729,12.8132454 17.8796852,13.0225537 17.1907895,13.0807091 C17.1540103,13.0795372 17.1174282,13.0865281 17.0836727,13.1011793 L11.1112323,13.1011793 C11.1092828,13.0646795 11.1046255,13.0282879 11.1046255,12.991788 L11.1046255,0.10484236 C11.1067917,0.0728914344 11.1092828,0.0364998713 11.1112323,0 Z M14.1901102,6.53564313 L14.1901102,11.2162913 C14.1901102,11.2527912 14.1901102,11.2891828 14.1922764,11.3256826 C14.192568,11.3407182 14.2047493,11.3528036 14.2197867,11.3529763 C14.2379896,11.3548733 14.2562931,11.355633 14.2745906,11.3552508 C14.5798032,11.3552508 14.8875069,11.3575252 15.1928277,11.3552508 C15.5253086,11.3534995 15.8556573,11.3020251 16.1729089,11.2025362 C16.8383176,11.005187 17.3744651,10.5102109 17.6242391,9.86265514 C17.75763,9.52298316 17.8323426,9.16311731 17.8451878,8.79841854 C17.8581937,8.55831568 17.8528712,8.3175706 17.8292665,8.07827716 C17.8068745,7.84636155 17.7610427,7.61731138 17.6924732,7.39463565 C17.4801629,6.64553345 16.8973466,6.05837967 16.1498392,5.84052095 C16.0973097,5.82459964 16.0448885,5.81095281 15.9924674,5.79492319 C15.9630797,5.7858253 15.9562563,5.76986789 15.9719971,5.74705096 L16.0268011,5.66506163 C16.3663473,5.15687945 16.7082764,4.64696433 17.0477144,4.13791568 C17.1201123,4.03299906 17.1840705,3.92250278 17.2389867,3.80746729 C17.438172,3.40394666 17.4253237,2.92811255 17.204653,2.53592875 C16.9372542,2.03976129 16.4194167,1.73007333 15.8557824,1.7292491 C15.349983,1.73379804 14.8418008,1.7292491 14.3358931,1.73152357 C14.1625999,1.73152357 14.1878357,1.70650437 14.1878357,1.88196369 C14.1902185,3.42947159 14.1909767,4.98069807 14.1901102,6.53564313 Z" id="path-4"></path>
                        <path d="M29.6199164,0 L31.6752815,0 C31.678656,0.0514656726 31.6673908,0.10283513 31.642789,0.14816565 C31.0846407,1.98030756 30.5264201,3.81244947 29.9681273,5.64459138 C29.2774096,7.90974956 28.5878473,10.1741135 27.8994402,12.4376832 C27.8403039,12.6290638 27.780951,12.8205527 27.7239809,13.0117167 C27.7146664,13.0412849 27.6922466,13.0709613 27.7146664,13.1029123 L24.5426434,13.1029123 C24.5336539,13.0686869 24.524556,13.0322953 24.5131836,12.9980699 C23.8865122,11.081592 23.2598408,9.16453644 22.6331695,7.24690324 C22.0699667,5.526391 21.507847,3.80663693 20.9468104,2.08764101 C20.730194,1.42681643 20.514444,0.76613627 20.2995605,0.105600518 C20.2818292,0.0733740969 20.273887,0.0366740257 20.2767074,3.40973368e-17 L22.7493842,3.40973368e-17 C22.8984056,0.0106483878 23.0458392,0.0373752701 23.1891156,0.0797148525 C23.3322751,0.126642611 23.4599281,0.211719688 23.5583383,0.325791136 C23.6165056,0.390917152 23.6676899,0.461957968 23.7110529,0.53775033 C23.7692132,0.638806347 23.8217152,0.743014964 23.8683164,0.84989463 C23.9689946,1.08407525 24.0563936,1.32374431 24.1300974,1.56776154 C24.2736419,2.03493101 24.4158145,2.50210048 24.5566152,2.96926995 C25.0122318,4.48009746 25.4671263,5.99016682 25.9212988,7.49947801 C26.1563277,8.27658952 26.3884322,9.05586718 26.6230278,9.83297869 C26.6324506,9.86038067 26.6434981,9.88994881 26.6595277,9.9332721 C26.6752324,9.88767434 26.6847635,9.86265514 26.6937531,9.83297869 C27.0128291,8.76195477 27.332555,7.69017269 27.6529307,6.61763246 C28.2136785,4.73992889 28.7734876,2.86218922 29.332358,0.984413444 C29.4260085,0.656311732 29.5218613,0.328173917 29.6199164,0 Z" id="path-5"></path>
                    </g>
                </g>
            </g>
        </g>
    </g>
</svg>