<?xml version="1.0" encoding="UTF-8"?>
<svg width="20px" height="20px" viewBox="0 0 20 20" version="1.1" xmlns="http://www.w3.org/2000/svg" xmlns:xlink="http://www.w3.org/1999/xlink">
    <!-- Generator: Sketch 42 (36781) - http://www.bohemiancoding.com/sketch -->
    <title>icon-loan</title>
    <desc>Created with Sketch.</desc>
    <defs></defs>
    <g id="Page-1" stroke="none" stroke-width="1" fill="none" fill-rule="evenodd">
        <g id="Transferir-paso-2-Copy-2" transform="translate(-289.000000, -861.000000)" fill="#2A86CA">
            <path d="M297.461538,870.230769 L297.461538,867.153835 L299,865.615385 L299,871 L296.692308,873.307692 L294.384615,873.307692 L297.461538,870.230769 Z M307.458978,870.450364 C306.979959,870.151169 306.459405,869.91227 305.907943,869.744292 C305.656965,865.722597 302.315714,862.538462 298.230769,862.538462 C293.982425,862.538462 290.538462,865.982425 290.538462,870.230769 C290.538462,874.315714 293.722597,877.656965 297.744292,877.907943 C297.91227,878.459405 298.151169,878.979959 298.450364,879.458978 C298.377372,879.460682 298.304171,879.461538 298.230769,879.461538 C293.132756,879.461538 289,875.328782 289,870.230769 C289,865.132756 293.132756,861 298.230769,861 C303.328782,861 307.461538,865.132756 307.461538,870.230769 C307.461538,870.304171 307.460682,870.377372 307.458978,870.450364 Z M304,881 C301.238576,881 299,878.761424 299,876 C299,873.238576 301.238576,871 304,871 C306.761424,871 309,873.238576 309,876 C309,878.761424 306.761424,881 304,881 Z M304.538462,879.3077 L304.538462,878.389162 C305.153846,878.217315 305.529923,877.737931 305.529923,877.085238 C305.529923,876.384162 305.231769,876.041854 304.288385,875.612315 C303.649077,875.320085 303.506923,875.186931 303.506923,874.900777 C303.506923,874.595008 303.727077,874.413469 304.130308,874.413469 C304.430538,874.413469 304.745385,874.526008 305.000154,874.720392 L305.092462,874.790854 L305.154,874.837854 L305.166231,874.761392 L305.184615,874.646777 L305.282077,874.037392 L305.29,873.990162 L305.295923,873.9587 L305.270077,873.942854 L305.232154,873.919008 C305.019,873.796392 304.846154,873.716238 304.538462,873.677623 L304.538462,873.239238 L303.773308,872.846162 L303.692308,872.846162 L303.692308,873.694008 C303.076923,873.833392 302.654923,874.299777 302.654923,874.946162 C302.654923,875.604238 302.960231,875.927392 303.901077,876.354315 C304.551154,876.648162 304.688923,876.7867 304.688923,877.1307 C304.688923,877.481315 304.432,877.695777 304.007154,877.695777 C303.642231,877.695777 303.249769,877.564777 302.897462,877.332392 L302.806385,877.272315 L302.745615,877.232315 L302.734923,877.304315 L302.718923,877.412162 L302.627692,878.034469 L302.619462,878.082854 L302.612538,878.115162 L302.636769,878.130469 L302.671077,878.153392 C302.973385,878.313392 303.307692,878.4147 303.692308,878.447085 L303.692308,878.897162 L304.479308,879.3077 L304.538462,879.3077 Z" id="icon-loan"></path>
        </g>
    </g>
</svg>